G04*
G04 #@! TF.GenerationSoftware,Altium Limited,Altium Designer,21.3.2 (30)*
G04*
G04 Layer_Physical_Order=2*
G04 Layer_Color=16711680*
%FSLAX42Y42*%
%MOMM*%
G71*
G04*
G04 #@! TF.SameCoordinates,9961E62E-B9AA-40A1-B44B-D4417248D9BC*
G04*
G04*
G04 #@! TF.FilePolarity,Positive*
G04*
G01*
G75*
%ADD11R,1.40X1.20*%
%ADD12R,1.20X1.40*%
%ADD17C,0.89*%
%ADD18C,0.51*%
%ADD19C,0.64*%
%ADD20C,0.50*%
%ADD21C,1.50*%
%ADD22C,2.00*%
%ADD23R,2.00X2.00*%
%ADD24R,1.52X1.52*%
%ADD25C,1.52*%
%ADD26O,2.54X3.05*%
%ADD27R,2.78X2.78*%
%ADD28C,2.78*%
%ADD29C,2.79*%
%ADD30C,2.10*%
%ADD31R,2.10X2.10*%
%ADD32C,1.52*%
%ADD33C,2.29*%
%ADD34R,1.52X1.52*%
%ADD35O,0.55X2.00*%
G36*
X12491Y44D02*
X69D01*
Y8669D01*
X12491D01*
Y44D01*
D02*
G37*
%LPC*%
G36*
X12122Y8508D02*
X12084D01*
X12048Y8501D01*
X12013Y8487D01*
X11982Y8466D01*
X11956Y8440D01*
X11935Y8408D01*
X11920Y8374D01*
X11913Y8337D01*
Y8300D01*
X11920Y8263D01*
X11935Y8229D01*
X11956Y8197D01*
X11982Y8171D01*
X12013Y8150D01*
X12048Y8136D01*
X12084Y8129D01*
X12122D01*
X12159Y8136D01*
X12193Y8150D01*
X12224Y8171D01*
X12251Y8197D01*
X12271Y8229D01*
X12286Y8263D01*
X12293Y8300D01*
Y8337D01*
X12286Y8374D01*
X12271Y8408D01*
X12251Y8440D01*
X12224Y8466D01*
X12193Y8487D01*
X12159Y8501D01*
X12122Y8508D01*
D02*
G37*
G36*
X438D02*
X400D01*
X364Y8501D01*
X329Y8487D01*
X298Y8466D01*
X272Y8440D01*
X251Y8408D01*
X236Y8374D01*
X229Y8337D01*
Y8300D01*
X236Y8263D01*
X251Y8229D01*
X272Y8197D01*
X298Y8171D01*
X329Y8150D01*
X364Y8136D01*
X400Y8129D01*
X438D01*
X475Y8136D01*
X509Y8150D01*
X540Y8171D01*
X567Y8197D01*
X587Y8229D01*
X602Y8263D01*
X609Y8300D01*
Y8337D01*
X602Y8374D01*
X587Y8408D01*
X567Y8440D01*
X540Y8466D01*
X509Y8487D01*
X475Y8501D01*
X438Y8508D01*
D02*
G37*
G36*
X7837Y8145D02*
X7809D01*
X7782Y8138D01*
X7758Y8124D01*
X7738Y8104D01*
X7726Y8083D01*
X7375D01*
X7368Y8094D01*
X7344Y8118D01*
X7315Y8135D01*
X7282Y8144D01*
X7247D01*
X7214Y8135D01*
X7185Y8118D01*
X7160Y8094D01*
X7143Y8064D01*
X7134Y8031D01*
Y7997D01*
X7143Y7964D01*
X7160Y7934D01*
X7185Y7910D01*
X7214Y7893D01*
X7247Y7884D01*
X7282D01*
X7315Y7893D01*
X7344Y7910D01*
X7368Y7934D01*
X7386Y7964D01*
X7387Y7970D01*
X7742D01*
X7758Y7954D01*
X7782Y7940D01*
X7809Y7933D01*
X7837D01*
X7864Y7940D01*
X7888Y7954D01*
X7908Y7974D01*
X7922Y7998D01*
X7929Y8025D01*
Y8053D01*
X7922Y8080D01*
X7908Y8104D01*
X7888Y8124D01*
X7864Y8138D01*
X7837Y8145D01*
D02*
G37*
G36*
X10332Y8589D02*
X8336D01*
X8316Y8586D01*
X8298Y8578D01*
X8283Y8567D01*
X8046Y8330D01*
X5690D01*
X5680Y8329D01*
X5670Y8328D01*
X5663Y8324D01*
X5652Y8320D01*
X5637Y8308D01*
X5340Y8012D01*
X5333Y8013D01*
X3670D01*
X3651Y8010D01*
X3633Y8003D01*
X3617Y7991D01*
X2423Y6796D01*
X2417Y6797D01*
X2383D01*
X2378Y6796D01*
X2212Y6962D01*
X2197Y6974D01*
X2178Y6981D01*
X2159Y6984D01*
X1016D01*
X1014Y6989D01*
X995Y7017D01*
X972Y7041D01*
X944Y7059D01*
X913Y7072D01*
X880Y7079D01*
X847D01*
X814Y7072D01*
X783Y7059D01*
X755Y7041D01*
X732Y7017D01*
X713Y6989D01*
X700Y6958D01*
X694Y6926D01*
Y6892D01*
X700Y6859D01*
X713Y6828D01*
X732Y6801D01*
X755Y6777D01*
X783Y6758D01*
X814Y6746D01*
X847Y6739D01*
X880D01*
X913Y6746D01*
X944Y6758D01*
X972Y6777D01*
X995Y6801D01*
X1014Y6828D01*
X1016Y6834D01*
X2128D01*
X2272Y6690D01*
X2270Y6685D01*
Y6650D01*
X2272Y6645D01*
X1582Y5955D01*
X864D01*
X844Y5953D01*
X826Y5945D01*
X811Y5933D01*
X799Y5918D01*
X791Y5900D01*
X791Y5897D01*
X783Y5894D01*
X755Y5875D01*
X732Y5852D01*
X713Y5824D01*
X700Y5793D01*
X694Y5760D01*
Y5727D01*
X700Y5694D01*
X713Y5663D01*
X732Y5635D01*
X755Y5612D01*
X783Y5593D01*
X814Y5580D01*
X847Y5574D01*
X880D01*
X913Y5580D01*
X944Y5593D01*
X972Y5612D01*
X995Y5635D01*
X1014Y5663D01*
X1027Y5694D01*
X1033Y5727D01*
Y5760D01*
X1027Y5792D01*
X1027Y5795D01*
X1035Y5805D01*
X1613D01*
X1632Y5808D01*
X1650Y5815D01*
X1666Y5827D01*
X2378Y6539D01*
X2383Y6538D01*
X2417D01*
X2450Y6546D01*
X2480Y6563D01*
X2504Y6588D01*
X2521Y6617D01*
X2530Y6650D01*
Y6685D01*
X2529Y6690D01*
X3701Y7862D01*
X5272D01*
Y7739D01*
X5267Y7737D01*
X5243Y7713D01*
X5227Y7685D01*
X5220Y7684D01*
X5213Y7685D01*
X5197Y7713D01*
X5173Y7737D01*
X5143Y7754D01*
X5110Y7763D01*
X5076D01*
X5043Y7754D01*
X5013Y7737D01*
X4989Y7713D01*
X4972Y7683D01*
X4963Y7650D01*
Y7616D01*
X4972Y7583D01*
X4989Y7553D01*
X5013Y7529D01*
X5018Y7526D01*
Y7509D01*
X4963D01*
Y7249D01*
X5018D01*
Y6908D01*
X3454D01*
X3435Y6905D01*
X3417Y6898D01*
X3401Y6886D01*
X1861Y5346D01*
X641D01*
Y6059D01*
X660Y6078D01*
X714D01*
X733Y6081D01*
X751Y6088D01*
X767Y6100D01*
X774Y6107D01*
X783Y6101D01*
X814Y6088D01*
X847Y6082D01*
X880D01*
X913Y6088D01*
X944Y6101D01*
X972Y6120D01*
X995Y6143D01*
X1014Y6171D01*
X1027Y6202D01*
X1033Y6235D01*
Y6268D01*
X1027Y6301D01*
X1014Y6332D01*
X995Y6360D01*
X972Y6383D01*
X944Y6402D01*
X913Y6415D01*
X880Y6421D01*
X847D01*
X814Y6415D01*
X783Y6402D01*
X755Y6383D01*
X732Y6360D01*
X713Y6332D01*
X700Y6301D01*
X694Y6268D01*
Y6240D01*
X683Y6228D01*
X629D01*
X609Y6226D01*
X591Y6218D01*
X576Y6206D01*
X513Y6143D01*
X501Y6128D01*
X493Y6110D01*
X491Y6090D01*
Y5346D01*
X304D01*
Y6738D01*
X818Y7253D01*
X847Y7247D01*
X880D01*
X913Y7254D01*
X944Y7266D01*
X972Y7285D01*
X995Y7309D01*
X1014Y7336D01*
X1027Y7367D01*
X1033Y7400D01*
Y7434D01*
X1027Y7466D01*
X1014Y7497D01*
X995Y7525D01*
X972Y7549D01*
X944Y7567D01*
X913Y7580D01*
X880Y7586D01*
X847D01*
X814Y7580D01*
X783Y7567D01*
X755Y7549D01*
X732Y7525D01*
X713Y7497D01*
X700Y7466D01*
X694Y7434D01*
Y7400D01*
X700Y7367D01*
X706Y7353D01*
X176Y6822D01*
X164Y6807D01*
X156Y6789D01*
X154Y6769D01*
Y5271D01*
Y4067D01*
X151Y4063D01*
X143Y4045D01*
X141Y4026D01*
Y2743D01*
Y1715D01*
Y1537D01*
X143Y1517D01*
X151Y1499D01*
X163Y1484D01*
X1522Y125D01*
X1537Y113D01*
X1555Y105D01*
X1575Y103D01*
X6655D01*
X6674Y105D01*
X6692Y113D01*
X6708Y125D01*
X6898Y315D01*
X6898Y315D01*
X6997Y414D01*
X7009Y430D01*
X7017Y448D01*
X7019Y467D01*
Y474D01*
X7032Y478D01*
X7049Y467D01*
X7071Y462D01*
X7094Y467D01*
X7113Y480D01*
X7126Y499D01*
X7127Y504D01*
X7140Y506D01*
X7143Y501D01*
Y446D01*
X7143Y446D01*
X7148Y424D01*
X7160Y406D01*
X7351Y214D01*
X7370Y202D01*
X7391Y198D01*
X7391Y198D01*
X11176D01*
X11176Y198D01*
X11198Y202D01*
X11216Y214D01*
X12168Y1167D01*
X12168Y1167D01*
X12181Y1185D01*
X12185Y1206D01*
X12185Y1207D01*
Y6862D01*
X12196Y6868D01*
X12220Y6892D01*
X12237Y6922D01*
X12246Y6955D01*
Y6989D01*
X12237Y7022D01*
X12220Y7052D01*
X12196Y7076D01*
X12185Y7082D01*
Y7836D01*
X12185Y7836D01*
X12181Y7858D01*
X12168Y7876D01*
X12168Y7876D01*
X11559Y8485D01*
X11541Y8498D01*
X11519Y8502D01*
X11519Y8502D01*
X11049D01*
X11049Y8502D01*
X11027Y8498D01*
X11009Y8485D01*
X11009Y8485D01*
X10666Y8143D01*
X10657Y8145D01*
X10629D01*
X10602Y8138D01*
X10578Y8124D01*
X10558Y8104D01*
X10544Y8080D01*
X10537Y8053D01*
Y8025D01*
X10544Y7998D01*
X10558Y7974D01*
X10578Y7954D01*
X10602Y7940D01*
X10629Y7933D01*
X10657D01*
X10684Y7940D01*
X10708Y7954D01*
X10727Y7974D01*
X10741Y7998D01*
X10749Y8025D01*
Y8053D01*
X10746Y8063D01*
X11072Y8389D01*
X11496D01*
X12072Y7813D01*
Y7095D01*
X12066Y7093D01*
X12036Y7076D01*
X12020Y7060D01*
X12007Y7065D01*
Y7772D01*
X12007Y7772D01*
X12003Y7794D01*
X11991Y7812D01*
X11991Y7812D01*
X11445Y8358D01*
X11426Y8371D01*
X11405Y8375D01*
X11405Y8375D01*
X11176D01*
X11176Y8375D01*
X11154Y8371D01*
X11136Y8358D01*
X11136Y8358D01*
X10920Y8143D01*
X10911Y8145D01*
X10883D01*
X10856Y8138D01*
X10832Y8124D01*
X10812Y8104D01*
X10798Y8080D01*
X10791Y8053D01*
Y8025D01*
X10798Y7998D01*
X10812Y7974D01*
X10832Y7954D01*
X10856Y7940D01*
X10859Y7939D01*
Y7739D01*
X10855Y7737D01*
X10831Y7713D01*
X10814Y7683D01*
X10805Y7650D01*
Y7616D01*
X10814Y7583D01*
X10831Y7553D01*
X10855Y7529D01*
X10883Y7513D01*
X10884Y7506D01*
X10883Y7499D01*
X10855Y7483D01*
X10831Y7459D01*
X10814Y7429D01*
X10805Y7396D01*
Y7362D01*
X10814Y7329D01*
X10831Y7299D01*
X10855Y7275D01*
X10885Y7258D01*
X10891Y7256D01*
Y7067D01*
X10880Y7061D01*
X10856Y7036D01*
X10839Y7007D01*
X10830Y6974D01*
Y6939D01*
X10839Y6906D01*
X10856Y6877D01*
X10880Y6853D01*
X10910Y6835D01*
X10943Y6827D01*
X10977D01*
X11010Y6835D01*
X11040Y6853D01*
X11064Y6877D01*
X11081Y6906D01*
X11090Y6939D01*
Y6974D01*
X11081Y7007D01*
X11064Y7036D01*
X11040Y7061D01*
X11010Y7078D01*
X11004Y7079D01*
Y7269D01*
X11015Y7275D01*
X11039Y7299D01*
X11055Y7327D01*
X11062Y7328D01*
X11069Y7327D01*
X11085Y7299D01*
X11109Y7275D01*
X11139Y7258D01*
X11172Y7249D01*
X11206D01*
X11211Y7250D01*
X11368Y7094D01*
Y6470D01*
X11170Y6273D01*
X8710D01*
X8690Y6270D01*
X8672Y6263D01*
X8657Y6251D01*
X8381Y5975D01*
X8372Y5977D01*
X8336D01*
X8302Y5968D01*
X8271Y5950D01*
X8246Y5925D01*
X8228Y5894D01*
X8219Y5860D01*
Y5824D01*
X8228Y5790D01*
X8246Y5759D01*
X8271Y5734D01*
X8302Y5716D01*
X8336Y5707D01*
X8372D01*
X8406Y5716D01*
X8437Y5734D01*
X8462Y5759D01*
X8480Y5790D01*
X8489Y5824D01*
Y5860D01*
X8487Y5868D01*
X8741Y6123D01*
X11201D01*
X11221Y6125D01*
X11239Y6133D01*
X11254Y6145D01*
X11443Y6333D01*
X11596Y6179D01*
Y5149D01*
X11591Y5146D01*
X11567Y5122D01*
X11550Y5092D01*
X11541Y5059D01*
Y5025D01*
X11543Y5020D01*
X11126Y4603D01*
X9864D01*
X9772Y4695D01*
X9756Y4707D01*
X9738Y4714D01*
X9719Y4717D01*
X8995D01*
X8975Y4714D01*
X8957Y4707D01*
X8942Y4695D01*
X8279Y4032D01*
X8267Y4016D01*
X8263Y4008D01*
X8260D01*
X8226Y3999D01*
X8195Y3982D01*
X8170Y3956D01*
X8152Y3926D01*
X8143Y3891D01*
Y3856D01*
X8152Y3821D01*
X8170Y3791D01*
X8195Y3765D01*
X8226Y3748D01*
X8260Y3738D01*
X8296D01*
X8330Y3748D01*
X8361Y3765D01*
X8386Y3791D01*
X8404Y3821D01*
X8413Y3856D01*
Y3891D01*
X8404Y3926D01*
X8400Y3931D01*
X8404Y3941D01*
X8405Y3946D01*
X9026Y4567D01*
X9687D01*
X9780Y4474D01*
X9795Y4463D01*
X9813Y4455D01*
X9823Y4454D01*
X9833Y4452D01*
X11157D01*
X11176Y4455D01*
X11194Y4463D01*
X11210Y4474D01*
X11649Y4913D01*
X11654Y4912D01*
X11688D01*
X11721Y4921D01*
X11751Y4938D01*
X11775Y4962D01*
X11792Y4992D01*
X11801Y5025D01*
Y5059D01*
X11792Y5092D01*
X11775Y5122D01*
X11751Y5146D01*
X11746Y5149D01*
Y6210D01*
X11745Y6220D01*
X11744Y6230D01*
X11741Y6237D01*
X11736Y6248D01*
X11724Y6263D01*
X11518Y6470D01*
Y7125D01*
X11515Y7144D01*
X11508Y7162D01*
X11496Y7178D01*
X11317Y7356D01*
X11319Y7362D01*
Y7396D01*
X11310Y7429D01*
X11293Y7459D01*
X11269Y7483D01*
X11264Y7485D01*
Y7526D01*
X11269Y7529D01*
X11293Y7553D01*
X11310Y7583D01*
X11319Y7616D01*
Y7650D01*
X11310Y7683D01*
X11293Y7713D01*
X11269Y7737D01*
X11252Y7746D01*
Y7977D01*
X11248Y7996D01*
X11249Y7998D01*
X11257Y8025D01*
Y8053D01*
X11249Y8080D01*
X11235Y8104D01*
X11216Y8124D01*
X11192Y8138D01*
X11165Y8145D01*
X11137D01*
X11110Y8138D01*
X11086Y8124D01*
X11066Y8104D01*
X11052Y8080D01*
X11045Y8053D01*
Y8025D01*
X11052Y7998D01*
X11066Y7974D01*
X11086Y7954D01*
X11110Y7940D01*
X11126Y7936D01*
Y7746D01*
X11109Y7737D01*
X11085Y7713D01*
X11069Y7685D01*
X11062Y7684D01*
X11055Y7685D01*
X11039Y7713D01*
X11015Y7737D01*
X10985Y7754D01*
X10972Y7757D01*
Y7965D01*
X10981Y7974D01*
X10995Y7998D01*
X11003Y8025D01*
Y8053D01*
X11000Y8063D01*
X11199Y8262D01*
X11381D01*
X11894Y7749D01*
Y1315D01*
X11892Y1313D01*
X11879Y1320D01*
Y1452D01*
X11667D01*
Y1240D01*
X11812D01*
X11817Y1228D01*
X11038Y450D01*
X7589D01*
X7588Y451D01*
X7589Y459D01*
X7591Y465D01*
X7602Y467D01*
X7621Y480D01*
X7634Y499D01*
X7638Y521D01*
Y666D01*
X7634Y689D01*
X7626Y700D01*
X7633Y713D01*
X7761D01*
Y679D01*
X7961D01*
Y859D01*
X7961D01*
Y869D01*
X7961D01*
Y1049D01*
X7761D01*
Y1016D01*
X7633D01*
X7627Y1028D01*
X7634Y1039D01*
X7638Y1061D01*
Y1206D01*
X7636Y1217D01*
Y1269D01*
X7649Y1283D01*
X7944D01*
X7944Y1283D01*
X7965Y1287D01*
X7983Y1300D01*
X8282Y1598D01*
X8294Y1617D01*
X8299Y1638D01*
X8299Y1638D01*
Y1726D01*
X8307Y1731D01*
X8327Y1751D01*
X8341Y1775D01*
X8348Y1802D01*
Y1830D01*
X8341Y1857D01*
X8331Y1874D01*
X8341Y1882D01*
X8391Y1832D01*
X8390Y1830D01*
Y1802D01*
X8398Y1775D01*
X8411Y1751D01*
X8431Y1731D01*
X8455Y1717D01*
X8482Y1710D01*
X8510D01*
X8537Y1717D01*
X8561Y1731D01*
X8581Y1751D01*
X8595Y1775D01*
X8602Y1802D01*
Y1812D01*
X8635Y1844D01*
X8646Y1838D01*
X8644Y1830D01*
Y1802D01*
X8652Y1775D01*
X8665Y1751D01*
X8675Y1741D01*
Y1322D01*
X8676Y1318D01*
Y1240D01*
X8659Y1223D01*
X8642Y1193D01*
X8633Y1160D01*
Y1126D01*
X8642Y1093D01*
X8659Y1063D01*
X8683Y1039D01*
X8713Y1022D01*
X8746Y1013D01*
X8780D01*
X8813Y1022D01*
X8843Y1039D01*
X8867Y1063D01*
X8884Y1093D01*
X8893Y1126D01*
Y1160D01*
X8884Y1193D01*
X8867Y1223D01*
X8847Y1243D01*
X8845Y1259D01*
X9297Y1710D01*
X9402D01*
Y1838D01*
X9414Y1843D01*
X9444Y1813D01*
Y1802D01*
X9452Y1775D01*
X9466Y1751D01*
X9475Y1741D01*
Y1606D01*
X9382Y1513D01*
X9377Y1514D01*
X9343D01*
X9310Y1505D01*
X9280Y1488D01*
X9256Y1464D01*
X9239Y1434D01*
X9230Y1401D01*
Y1367D01*
X9239Y1334D01*
X9256Y1304D01*
X9280Y1280D01*
X9285Y1278D01*
Y1131D01*
X9287Y1111D01*
X9295Y1093D01*
X9307Y1077D01*
X9310Y1074D01*
Y970D01*
X9305Y968D01*
X9281Y943D01*
X9264Y914D01*
X9255Y881D01*
Y846D01*
X9264Y813D01*
X9281Y784D01*
X9305Y760D01*
X9335Y742D01*
X9368Y734D01*
X9402D01*
X9435Y742D01*
X9465Y760D01*
X9489Y784D01*
X9506Y813D01*
X9515Y846D01*
Y881D01*
X9506Y914D01*
X9489Y943D01*
X9465Y968D01*
X9460Y970D01*
Y1105D01*
X9458Y1125D01*
X9450Y1143D01*
X9438Y1158D01*
X9435Y1162D01*
Y1278D01*
X9440Y1280D01*
X9457Y1298D01*
X9468Y1296D01*
X9468Y1296D01*
X9855D01*
X9879Y1301D01*
X9900Y1314D01*
X10567Y1982D01*
X11138D01*
X11162Y1987D01*
X11182Y2000D01*
X11233Y2051D01*
X11233Y2051D01*
X11247Y2071D01*
X11252Y2095D01*
X11252Y2096D01*
Y2178D01*
X11281Y2195D01*
X11305Y2219D01*
X11323Y2249D01*
X11331Y2282D01*
Y2316D01*
X11323Y2349D01*
X11305Y2379D01*
X11281Y2403D01*
X11276Y2405D01*
Y2446D01*
X11281Y2449D01*
X11305Y2473D01*
X11323Y2503D01*
X11331Y2536D01*
Y2570D01*
X11323Y2603D01*
X11305Y2633D01*
X11281Y2657D01*
X11252Y2674D01*
X11219Y2683D01*
X11184D01*
X11151Y2674D01*
X11122Y2657D01*
X11097Y2633D01*
X11080Y2603D01*
X11071Y2570D01*
Y2536D01*
X11080Y2503D01*
X11097Y2473D01*
X11122Y2449D01*
X11126Y2446D01*
Y2405D01*
X11122Y2403D01*
X11097Y2379D01*
X11080Y2349D01*
X11071Y2316D01*
Y2282D01*
X11080Y2249D01*
X11097Y2219D01*
X11122Y2195D01*
X11126Y2192D01*
Y2122D01*
X11112Y2108D01*
X10541D01*
X10541Y2108D01*
X10517Y2103D01*
X10496Y2089D01*
X10496Y2089D01*
X10157Y1750D01*
X10147Y1758D01*
X10157Y1775D01*
X10164Y1802D01*
Y1830D01*
X10157Y1857D01*
X10143Y1881D01*
X10123Y1901D01*
X10115Y1906D01*
Y2083D01*
X10115Y2083D01*
X10111Y2104D01*
X10098Y2123D01*
X10098Y2123D01*
X10048Y2174D01*
X10029Y2186D01*
X10008Y2190D01*
X10008Y2190D01*
X9979D01*
X9975Y2203D01*
X9996Y2215D01*
X10015Y2234D01*
X10029Y2258D01*
X10036Y2285D01*
Y2313D01*
X10029Y2339D01*
X10015Y2363D01*
X9996Y2383D01*
X9972Y2397D01*
X9945Y2404D01*
X9918D01*
X9891Y2397D01*
X9867Y2383D01*
X9847Y2363D01*
X9834Y2339D01*
X9826Y2313D01*
Y2285D01*
X9834Y2258D01*
X9847Y2234D01*
X9867Y2215D01*
X9888Y2203D01*
X9884Y2190D01*
X9725D01*
X9721Y2203D01*
X9742Y2215D01*
X9761Y2234D01*
X9775Y2258D01*
X9782Y2285D01*
Y2313D01*
X9775Y2339D01*
X9761Y2363D01*
X9742Y2383D01*
X9718Y2397D01*
X9691Y2404D01*
X9664D01*
X9637Y2397D01*
X9613Y2383D01*
X9593Y2363D01*
X9580Y2339D01*
X9572Y2313D01*
Y2285D01*
X9580Y2258D01*
X9593Y2234D01*
X9613Y2215D01*
X9634Y2203D01*
X9630Y2190D01*
X9599D01*
X9543Y2246D01*
X9545Y2249D01*
X9553Y2282D01*
Y2316D01*
X9545Y2349D01*
X9527Y2379D01*
X9503Y2403D01*
X9475Y2419D01*
X9474Y2426D01*
X9475Y2433D01*
X9503Y2449D01*
X9527Y2473D01*
X9545Y2503D01*
X9553Y2536D01*
Y2570D01*
X9545Y2603D01*
X9527Y2633D01*
X9503Y2657D01*
X9474Y2674D01*
X9441Y2683D01*
X9406D01*
X9373Y2674D01*
X9344Y2657D01*
X9319Y2633D01*
X9303Y2605D01*
X9296Y2604D01*
X9290Y2605D01*
X9273Y2633D01*
X9263Y2643D01*
X9367Y2747D01*
X9386Y2736D01*
X9419Y2727D01*
X9453D01*
X9486Y2736D01*
X9516Y2753D01*
X9540Y2778D01*
X9557Y2807D01*
X9566Y2840D01*
Y2875D01*
X9557Y2908D01*
X9540Y2937D01*
X9516Y2962D01*
X9486Y2979D01*
X9453Y2988D01*
X9419D01*
X9386Y2979D01*
X9356Y2962D01*
X9332Y2937D01*
X9315Y2908D01*
X9306Y2875D01*
Y2860D01*
X9304Y2856D01*
X9302Y2841D01*
X9141Y2680D01*
X9119Y2674D01*
X9090Y2657D01*
X9065Y2633D01*
X9048Y2603D01*
X9039Y2570D01*
Y2536D01*
X9048Y2503D01*
X9065Y2473D01*
X9090Y2449D01*
X9119Y2432D01*
X9152Y2423D01*
X9187D01*
X9220Y2432D01*
X9249Y2449D01*
X9273Y2473D01*
X9290Y2501D01*
X9296Y2502D01*
X9303Y2501D01*
X9319Y2473D01*
X9344Y2449D01*
X9372Y2433D01*
X9372Y2426D01*
X9372Y2419D01*
X9344Y2403D01*
X9319Y2379D01*
X9302Y2349D01*
X9293Y2316D01*
Y2282D01*
X9302Y2249D01*
X9319Y2219D01*
X9344Y2195D01*
X9373Y2178D01*
X9406Y2169D01*
X9441D01*
X9457Y2173D01*
X9536Y2094D01*
X9536Y2094D01*
X9554Y2081D01*
X9576Y2077D01*
X9576Y2077D01*
X9984D01*
X10002Y2059D01*
Y1906D01*
X9993Y1901D01*
X9974Y1881D01*
X9960Y1857D01*
X9952Y1830D01*
Y1802D01*
X9960Y1775D01*
X9974Y1751D01*
X9993Y1731D01*
X10017Y1717D01*
X10044Y1710D01*
X10072D01*
X10099Y1717D01*
X10117Y1727D01*
X10124Y1717D01*
X9922Y1514D01*
X9911Y1522D01*
X9913Y1525D01*
X9922Y1558D01*
Y1592D01*
X9913Y1625D01*
X9896Y1655D01*
X9872Y1679D01*
X9861Y1685D01*
Y1726D01*
X9869Y1731D01*
X9889Y1751D01*
X9903Y1775D01*
X9910Y1802D01*
Y1830D01*
X9903Y1857D01*
X9889Y1881D01*
X9869Y1901D01*
X9845Y1915D01*
X9818Y1922D01*
X9790D01*
X9763Y1915D01*
X9739Y1901D01*
X9720Y1881D01*
X9706Y1857D01*
X9698Y1830D01*
Y1802D01*
X9706Y1775D01*
X9720Y1751D01*
X9739Y1731D01*
X9748Y1726D01*
Y1698D01*
X9742Y1696D01*
X9712Y1679D01*
X9688Y1655D01*
X9671Y1625D01*
X9662Y1592D01*
Y1558D01*
X9671Y1525D01*
X9688Y1495D01*
X9712Y1471D01*
X9742Y1454D01*
X9775Y1445D01*
X9809D01*
X9842Y1454D01*
X9844Y1455D01*
X9852Y1445D01*
X9829Y1422D01*
X9520D01*
X9515Y1434D01*
X9603Y1522D01*
X9615Y1537D01*
X9623Y1555D01*
X9624Y1565D01*
X9625Y1575D01*
Y1741D01*
X9635Y1751D01*
X9649Y1775D01*
X9656Y1802D01*
Y1830D01*
X9649Y1857D01*
X9635Y1881D01*
X9615Y1901D01*
X9591Y1915D01*
X9564Y1922D01*
X9547D01*
X9514Y1956D01*
X9512Y1960D01*
X9500Y1976D01*
X9429Y2047D01*
X9413Y2059D01*
X9395Y2066D01*
X9376Y2069D01*
X8678D01*
X8659Y2066D01*
X8641Y2059D01*
X8625Y2047D01*
X8500Y1922D01*
X8482D01*
X8480Y1921D01*
X8299Y2102D01*
X8279Y2116D01*
X8255Y2121D01*
X8154D01*
X8022Y2253D01*
X8029Y2282D01*
Y2316D01*
X8021Y2349D01*
X8003Y2379D01*
X7979Y2403D01*
X7950Y2420D01*
X7917Y2429D01*
X7882D01*
X7849Y2420D01*
X7820Y2403D01*
X7795Y2379D01*
X7778Y2349D01*
X7769Y2316D01*
Y2282D01*
X7778Y2249D01*
X7795Y2219D01*
X7820Y2195D01*
X7824Y2192D01*
Y2071D01*
X7509Y1756D01*
X7497Y1761D01*
Y1922D01*
X7285D01*
Y1710D01*
X7308D01*
X7309Y1697D01*
X7299Y1695D01*
X7279Y1682D01*
X7279Y1682D01*
X7242Y1645D01*
X7228Y1624D01*
X7223Y1600D01*
Y1599D01*
X7194D01*
X7082Y1711D01*
X7090Y1721D01*
X7096Y1717D01*
X7123Y1710D01*
X7151D01*
X7178Y1717D01*
X7202Y1731D01*
X7222Y1751D01*
X7236Y1775D01*
X7243Y1802D01*
Y1830D01*
X7236Y1857D01*
X7222Y1881D01*
X7202Y1901D01*
X7178Y1915D01*
X7171Y1917D01*
X7170Y1921D01*
X7158Y1939D01*
X7158Y1939D01*
X7083Y2014D01*
X7090Y2040D01*
Y2075D01*
X7081Y2108D01*
X7064Y2137D01*
X7039Y2161D01*
X7010Y2179D01*
X6977Y2187D01*
X6942D01*
X6909Y2179D01*
X6880Y2161D01*
X6856Y2137D01*
X6838Y2108D01*
X6830Y2075D01*
Y2040D01*
X6838Y2007D01*
X6856Y1978D01*
X6880Y1953D01*
X6909Y1936D01*
X6942Y1927D01*
X6977D01*
X7003Y1934D01*
X7054Y1883D01*
X7053Y1881D01*
X7039Y1857D01*
X7031Y1830D01*
Y1802D01*
X7039Y1775D01*
X7053Y1751D01*
X7061Y1742D01*
X7055Y1731D01*
X7043Y1736D01*
X7023Y1739D01*
X6973D01*
X6970Y1745D01*
X6968Y1751D01*
X6982Y1775D01*
X6989Y1802D01*
Y1830D01*
X6982Y1857D01*
X6968Y1881D01*
X6948Y1901D01*
X6924Y1915D01*
X6897Y1922D01*
X6869D01*
X6860Y1920D01*
X6593Y2187D01*
X6599Y2198D01*
X6616Y2194D01*
X6643D01*
X6670Y2201D01*
X6694Y2215D01*
X6713Y2234D01*
X6727Y2258D01*
X6734Y2285D01*
Y2313D01*
X6727Y2339D01*
X6713Y2363D01*
X6694Y2383D01*
X6670Y2397D01*
X6643Y2404D01*
X6616D01*
X6589Y2397D01*
X6565Y2383D01*
X6545Y2363D01*
X6532Y2339D01*
X6524Y2313D01*
Y2285D01*
X6529Y2269D01*
X6517Y2262D01*
X6504Y2276D01*
X6505Y2282D01*
Y2316D01*
X6497Y2349D01*
X6479Y2379D01*
X6455Y2403D01*
X6427Y2419D01*
X6426Y2426D01*
X6427Y2433D01*
X6455Y2449D01*
X6479Y2473D01*
X6497Y2503D01*
X6505Y2536D01*
Y2570D01*
X6497Y2603D01*
X6479Y2633D01*
X6455Y2657D01*
X6436Y2668D01*
X6434Y2684D01*
X6526Y2776D01*
X6590D01*
X6602Y2755D01*
X6626Y2731D01*
X6656Y2714D01*
X6689Y2705D01*
X6723D01*
X6756Y2714D01*
X6786Y2731D01*
X6810Y2755D01*
X6827Y2785D01*
X6836Y2818D01*
Y2852D01*
X6827Y2885D01*
X6810Y2915D01*
X6786Y2939D01*
X6756Y2956D01*
X6723Y2965D01*
X6689D01*
X6656Y2956D01*
X6626Y2939D01*
X6602Y2915D01*
X6587Y2889D01*
X6502D01*
X6481Y2884D01*
X6462Y2872D01*
X6462Y2872D01*
X6323Y2732D01*
X6311Y2714D01*
X6306Y2692D01*
X6306Y2692D01*
Y2663D01*
X6296Y2657D01*
X6271Y2633D01*
X6254Y2603D01*
X6245Y2570D01*
Y2536D01*
X6254Y2503D01*
X6271Y2473D01*
X6296Y2449D01*
X6324Y2433D01*
X6324Y2426D01*
X6324Y2419D01*
X6296Y2403D01*
X6271Y2379D01*
X6254Y2349D01*
X6245Y2316D01*
Y2282D01*
X6254Y2249D01*
X6271Y2219D01*
X6296Y2195D01*
X6325Y2178D01*
X6358Y2169D01*
X6393D01*
X6426Y2178D01*
X6436Y2184D01*
X6780Y1840D01*
X6777Y1830D01*
Y1802D01*
X6785Y1775D01*
X6798Y1751D01*
X6797Y1745D01*
X6794Y1739D01*
X6719D01*
X6716Y1745D01*
X6714Y1751D01*
X6728Y1775D01*
X6735Y1802D01*
Y1830D01*
X6728Y1857D01*
X6714Y1881D01*
X6694Y1901D01*
X6670Y1915D01*
X6643Y1922D01*
X6615D01*
X6588Y1915D01*
X6564Y1901D01*
X6555Y1891D01*
X6114D01*
X5809Y2196D01*
X5817Y2207D01*
X5827Y2201D01*
X5854Y2194D01*
X5881D01*
X5908Y2201D01*
X5932Y2215D01*
X5951Y2234D01*
X5965Y2258D01*
X5972Y2285D01*
Y2313D01*
X5965Y2339D01*
X5951Y2363D01*
X5932Y2383D01*
X5908Y2397D01*
X5881Y2404D01*
X5854D01*
X5827Y2397D01*
X5803Y2383D01*
X5783Y2363D01*
X5770Y2339D01*
X5762Y2313D01*
Y2285D01*
X5770Y2258D01*
X5775Y2248D01*
X5765Y2241D01*
X5739Y2266D01*
X5743Y2282D01*
Y2316D01*
X5735Y2349D01*
X5717Y2379D01*
X5693Y2403D01*
X5664Y2420D01*
X5631Y2429D01*
X5596D01*
X5563Y2420D01*
X5534Y2403D01*
X5509Y2379D01*
X5493Y2351D01*
X5486Y2350D01*
X5480Y2351D01*
X5463Y2379D01*
X5439Y2403D01*
X5434Y2405D01*
Y2446D01*
X5439Y2449D01*
X5463Y2473D01*
X5481Y2503D01*
X5489Y2536D01*
Y2570D01*
X5481Y2603D01*
X5463Y2633D01*
X5439Y2657D01*
X5410Y2674D01*
X5377Y2683D01*
X5342D01*
X5309Y2674D01*
X5280Y2657D01*
X5255Y2633D01*
X5239Y2605D01*
X5232Y2604D01*
X5226Y2605D01*
X5209Y2633D01*
X5185Y2657D01*
X5156Y2674D01*
X5123Y2683D01*
X5088D01*
X5073Y2679D01*
X4943Y2809D01*
X4927Y2821D01*
X4909Y2828D01*
X4890Y2831D01*
X1016D01*
X1014Y2836D01*
X995Y2864D01*
X972Y2888D01*
X944Y2906D01*
X913Y2919D01*
X880Y2926D01*
X847D01*
X814Y2919D01*
X783Y2906D01*
X755Y2888D01*
X732Y2864D01*
X713Y2836D01*
X711Y2831D01*
X291D01*
Y3842D01*
X304Y3848D01*
X321Y3846D01*
X711D01*
X713Y3841D01*
X732Y3813D01*
X755Y3789D01*
X783Y3771D01*
X814Y3758D01*
X847Y3751D01*
X880D01*
X913Y3758D01*
X944Y3771D01*
X972Y3789D01*
X995Y3813D01*
X1014Y3841D01*
X1027Y3872D01*
X1033Y3904D01*
Y3938D01*
X1027Y3971D01*
X1014Y4002D01*
X995Y4029D01*
X972Y4053D01*
X944Y4072D01*
X913Y4084D01*
X880Y4091D01*
X847D01*
X814Y4084D01*
X783Y4072D01*
X755Y4053D01*
X732Y4029D01*
X713Y4002D01*
X711Y3996D01*
X352D01*
X304Y4044D01*
Y5195D01*
X717D01*
X724Y5183D01*
X713Y5167D01*
X700Y5136D01*
X694Y5103D01*
Y5070D01*
X700Y5037D01*
X713Y5006D01*
X732Y4978D01*
X755Y4955D01*
X783Y4936D01*
X814Y4923D01*
X847Y4917D01*
X880D01*
X913Y4923D01*
X944Y4936D01*
X972Y4955D01*
X995Y4978D01*
X1014Y5006D01*
X1016Y5011D01*
X1086D01*
X1105Y5014D01*
X1123Y5021D01*
X1139Y5033D01*
X1301Y5195D01*
X1892D01*
X1912Y5198D01*
X1930Y5205D01*
X1945Y5217D01*
X3486Y6758D01*
X5067D01*
X5085Y6760D01*
X5167Y6678D01*
X5182Y6666D01*
X5200Y6658D01*
X5220Y6656D01*
X5951D01*
X5954Y6651D01*
X5978Y6627D01*
X6008Y6610D01*
X6041Y6601D01*
X6075D01*
X6108Y6610D01*
X6138Y6627D01*
X6162Y6651D01*
X6179Y6681D01*
X6188Y6714D01*
Y6748D01*
X6179Y6781D01*
X6162Y6811D01*
X6138Y6835D01*
X6108Y6852D01*
X6075Y6861D01*
X6041D01*
X6008Y6852D01*
X5978Y6835D01*
X5954Y6811D01*
X5951Y6806D01*
X5251D01*
X5168Y6889D01*
Y7249D01*
X5223D01*
Y7308D01*
X5235Y7311D01*
X5243Y7299D01*
X5267Y7275D01*
X5297Y7258D01*
X5330Y7249D01*
X5364D01*
X5397Y7258D01*
X5427Y7275D01*
X5451Y7299D01*
X5467Y7327D01*
X5474Y7328D01*
X5481Y7327D01*
X5497Y7299D01*
X5521Y7275D01*
X5551Y7258D01*
X5584Y7249D01*
X5618D01*
X5651Y7258D01*
X5681Y7275D01*
X5705Y7299D01*
X5722Y7329D01*
X5731Y7362D01*
Y7396D01*
X5722Y7429D01*
X5705Y7459D01*
X5681Y7483D01*
X5676Y7485D01*
Y7526D01*
X5681Y7529D01*
X5705Y7553D01*
X5722Y7583D01*
X5731Y7616D01*
Y7650D01*
X5722Y7683D01*
X5705Y7713D01*
X5681Y7737D01*
X5651Y7754D01*
X5618Y7763D01*
X5584D01*
X5551Y7754D01*
X5521Y7737D01*
X5497Y7713D01*
X5481Y7685D01*
X5474Y7684D01*
X5467Y7685D01*
X5451Y7713D01*
X5427Y7737D01*
X5422Y7739D01*
Y7881D01*
X5721Y8180D01*
X8002D01*
Y8114D01*
X7992Y8104D01*
X7978Y8080D01*
X7971Y8053D01*
Y8025D01*
X7978Y7998D01*
X7992Y7974D01*
X8012Y7954D01*
X8036Y7940D01*
X8063Y7933D01*
X8091D01*
X8115Y7939D01*
X8121Y7928D01*
X7943Y7750D01*
X7937Y7754D01*
X7904Y7763D01*
X7870D01*
X7837Y7754D01*
X7807Y7737D01*
X7783Y7713D01*
X7766Y7683D01*
X7757Y7650D01*
Y7616D01*
X7766Y7583D01*
X7783Y7553D01*
X7807Y7529D01*
X7835Y7513D01*
X7836Y7506D01*
X7835Y7499D01*
X7807Y7483D01*
X7783Y7459D01*
X7766Y7429D01*
X7757Y7396D01*
Y7362D01*
X7766Y7329D01*
X7783Y7299D01*
X7807Y7275D01*
X7830Y7261D01*
Y7222D01*
X7820Y7216D01*
X7795Y7192D01*
X7778Y7162D01*
X7769Y7129D01*
Y7095D01*
X7778Y7062D01*
X7795Y7032D01*
X7820Y7008D01*
X7849Y6991D01*
X7882Y6982D01*
X7917D01*
X7950Y6991D01*
X7979Y7008D01*
X8003Y7032D01*
X8021Y7062D01*
X8029Y7095D01*
Y7129D01*
X8021Y7162D01*
X8003Y7192D01*
X7979Y7216D01*
X7950Y7233D01*
X7943Y7235D01*
Y7261D01*
X7967Y7275D01*
X7991Y7299D01*
X8007Y7327D01*
X8014Y7328D01*
X8021Y7327D01*
X8037Y7299D01*
X8061Y7275D01*
X8091Y7258D01*
X8124Y7249D01*
X8158D01*
X8184Y7256D01*
X8863Y6577D01*
X8863Y6577D01*
X8881Y6565D01*
X8903Y6560D01*
X8903Y6560D01*
X10215D01*
X10221Y6550D01*
X10245Y6525D01*
X10275Y6508D01*
X10308Y6499D01*
X10342D01*
X10375Y6508D01*
X10405Y6525D01*
X10429Y6550D01*
X10446Y6579D01*
X10455Y6612D01*
Y6647D01*
X10446Y6680D01*
X10429Y6709D01*
X10413Y6725D01*
X10418Y6738D01*
X10512D01*
X10526Y6715D01*
X10550Y6690D01*
X10580Y6673D01*
X10613Y6664D01*
X10647D01*
X10680Y6673D01*
X10710Y6690D01*
X10734Y6715D01*
X10751Y6744D01*
X10760Y6777D01*
Y6812D01*
X10751Y6845D01*
X10734Y6874D01*
X10710Y6899D01*
X10680Y6916D01*
X10647Y6925D01*
X10613D01*
X10580Y6916D01*
X10550Y6899D01*
X10526Y6874D01*
X10512Y6851D01*
X9764D01*
X9280Y7336D01*
X9287Y7362D01*
Y7396D01*
X9278Y7429D01*
X9261Y7459D01*
X9237Y7483D01*
X9207Y7500D01*
X9174Y7509D01*
X9140D01*
X9107Y7500D01*
X9077Y7483D01*
X9053Y7459D01*
X9036Y7429D01*
X9027Y7396D01*
Y7362D01*
X9036Y7329D01*
X9053Y7299D01*
X9077Y7275D01*
X9107Y7258D01*
X9140Y7249D01*
X9174D01*
X9200Y7256D01*
X9701Y6755D01*
X9701Y6755D01*
X9719Y6742D01*
X9741Y6738D01*
X9741Y6738D01*
X10232D01*
X10237Y6725D01*
X10221Y6709D01*
X10204Y6680D01*
X10202Y6673D01*
X8926D01*
X8264Y7336D01*
X8271Y7362D01*
Y7396D01*
X8262Y7429D01*
X8245Y7459D01*
X8221Y7483D01*
X8193Y7499D01*
X8192Y7506D01*
X8193Y7513D01*
X8221Y7529D01*
X8245Y7553D01*
X8262Y7583D01*
X8271Y7616D01*
Y7650D01*
X8266Y7669D01*
X8298Y7701D01*
X8309Y7694D01*
X8297Y7673D01*
X8290Y7647D01*
Y7619D01*
X8297Y7592D01*
X8311Y7568D01*
X8330Y7549D01*
X8354Y7535D01*
X8381Y7528D01*
X8409D01*
X8435Y7535D01*
X8459Y7549D01*
X8479Y7568D01*
X8493Y7592D01*
X8500Y7619D01*
Y7647D01*
X8493Y7673D01*
X8479Y7697D01*
X8459Y7717D01*
X8435Y7731D01*
X8409Y7738D01*
X8381D01*
X8354Y7731D01*
X8334Y7719D01*
X8326Y7729D01*
X8370Y7773D01*
X8979D01*
X9003Y7778D01*
X9023Y7791D01*
X9283Y8051D01*
X9295Y8047D01*
X9323D01*
X9350Y8055D01*
X9374Y8069D01*
X9394Y8088D01*
X9408Y8112D01*
X9415Y8139D01*
Y8167D01*
X9408Y8194D01*
X9394Y8218D01*
X9374Y8238D01*
X9350Y8252D01*
X9323Y8259D01*
X9295D01*
X9268Y8252D01*
X9244Y8238D01*
X9224Y8218D01*
X9210Y8194D01*
X9203Y8167D01*
Y8149D01*
X9173Y8119D01*
X9161Y8124D01*
Y8259D01*
X8949D01*
Y8228D01*
X8772D01*
X8767Y8240D01*
X8778Y8251D01*
X8795Y8281D01*
X8804Y8314D01*
Y8348D01*
X8795Y8381D01*
X8778Y8411D01*
X8764Y8426D01*
X8769Y8438D01*
X9724D01*
X9729Y8426D01*
X9563Y8259D01*
X9549D01*
X9522Y8252D01*
X9498Y8238D01*
X9478Y8218D01*
X9464Y8194D01*
X9457Y8167D01*
Y8139D01*
X9464Y8112D01*
X9478Y8088D01*
X9498Y8069D01*
X9522Y8055D01*
X9549Y8047D01*
X9577D01*
X9604Y8055D01*
X9628Y8069D01*
X9648Y8088D01*
X9662Y8112D01*
X9669Y8139D01*
Y8153D01*
X9703Y8187D01*
X9715Y8181D01*
X9711Y8167D01*
Y8139D01*
X9718Y8112D01*
X9732Y8088D01*
X9752Y8069D01*
X9776Y8055D01*
X9803Y8047D01*
X9831D01*
X9858Y8055D01*
X9882Y8069D01*
X9902Y8088D01*
X9916Y8112D01*
X9922Y8135D01*
X10004D01*
X10018Y8112D01*
X10042Y8087D01*
X10072Y8070D01*
X10105Y8061D01*
X10139D01*
X10172Y8070D01*
X10202Y8087D01*
X10226Y8112D01*
X10243Y8141D01*
X10252Y8174D01*
Y8209D01*
X10243Y8242D01*
X10226Y8271D01*
X10203Y8294D01*
X10205Y8307D01*
X10314D01*
Y8145D01*
X10283D01*
Y7933D01*
X10495D01*
Y8145D01*
X10464D01*
Y8382D01*
Y8457D01*
X10461Y8476D01*
X10454Y8494D01*
X10442Y8510D01*
X10385Y8567D01*
X10370Y8578D01*
X10352Y8586D01*
X10332Y8589D01*
D02*
G37*
G36*
X9707Y7991D02*
X9673D01*
X9640Y7982D01*
X9610Y7965D01*
X9586Y7941D01*
X9569Y7911D01*
X9560Y7878D01*
Y7844D01*
X9562Y7838D01*
X9471Y7748D01*
X9461Y7754D01*
X9428Y7763D01*
X9394D01*
X9361Y7754D01*
X9331Y7737D01*
X9307Y7713D01*
X9290Y7683D01*
X9281Y7650D01*
Y7616D01*
X9290Y7583D01*
X9307Y7553D01*
X9331Y7529D01*
X9361Y7512D01*
X9394Y7503D01*
X9428D01*
X9461Y7512D01*
X9491Y7529D01*
X9515Y7553D01*
X9532Y7583D01*
X9541Y7616D01*
Y7650D01*
X9539Y7656D01*
X9553Y7669D01*
X9564Y7663D01*
X9560Y7647D01*
Y7619D01*
X9567Y7592D01*
X9581Y7568D01*
X9600Y7549D01*
X9624Y7535D01*
X9651Y7528D01*
X9679D01*
X9705Y7535D01*
X9729Y7549D01*
X9749Y7568D01*
X9763Y7592D01*
X9770Y7619D01*
Y7647D01*
X9763Y7673D01*
X9749Y7697D01*
X9729Y7717D01*
X9721Y7722D01*
X9722Y7735D01*
X9740Y7740D01*
X9770Y7757D01*
X9794Y7781D01*
X9811Y7811D01*
X9820Y7844D01*
Y7878D01*
X9811Y7911D01*
X9794Y7941D01*
X9770Y7965D01*
X9740Y7982D01*
X9707Y7991D01*
D02*
G37*
G36*
X10695Y7738D02*
X10667D01*
X10640Y7731D01*
X10616Y7717D01*
X10597Y7697D01*
X10583Y7673D01*
X10576Y7647D01*
Y7619D01*
X10583Y7592D01*
X10597Y7568D01*
X10616Y7549D01*
X10640Y7535D01*
X10667Y7528D01*
X10695D01*
X10721Y7535D01*
X10745Y7549D01*
X10765Y7568D01*
X10779Y7592D01*
X10786Y7619D01*
Y7647D01*
X10779Y7673D01*
X10765Y7697D01*
X10745Y7717D01*
X10721Y7731D01*
X10695Y7738D01*
D02*
G37*
G36*
X10441D02*
X10413D01*
X10386Y7731D01*
X10362Y7717D01*
X10343Y7697D01*
X10329Y7673D01*
X10322Y7647D01*
Y7619D01*
X10329Y7592D01*
X10343Y7568D01*
X10362Y7549D01*
X10386Y7535D01*
X10413Y7528D01*
X10441D01*
X10467Y7535D01*
X10491Y7549D01*
X10511Y7568D01*
X10525Y7592D01*
X10532Y7619D01*
Y7647D01*
X10525Y7673D01*
X10511Y7697D01*
X10491Y7717D01*
X10467Y7731D01*
X10441Y7738D01*
D02*
G37*
G36*
X10187D02*
X10159D01*
X10132Y7731D01*
X10108Y7717D01*
X10089Y7697D01*
X10075Y7673D01*
X10068Y7647D01*
Y7619D01*
X10075Y7592D01*
X10089Y7568D01*
X10108Y7549D01*
X10132Y7535D01*
X10159Y7528D01*
X10187D01*
X10213Y7535D01*
X10237Y7549D01*
X10257Y7568D01*
X10271Y7592D01*
X10278Y7619D01*
Y7647D01*
X10271Y7673D01*
X10257Y7697D01*
X10237Y7717D01*
X10213Y7731D01*
X10187Y7738D01*
D02*
G37*
G36*
X9933D02*
X9905D01*
X9878Y7731D01*
X9854Y7717D01*
X9835Y7697D01*
X9821Y7673D01*
X9814Y7647D01*
Y7619D01*
X9821Y7592D01*
X9835Y7568D01*
X9854Y7549D01*
X9878Y7535D01*
X9905Y7528D01*
X9933D01*
X9959Y7535D01*
X9983Y7549D01*
X10003Y7568D01*
X10017Y7592D01*
X10024Y7619D01*
Y7647D01*
X10017Y7673D01*
X10003Y7697D01*
X9983Y7717D01*
X9959Y7731D01*
X9933Y7738D01*
D02*
G37*
G36*
X9171D02*
X9143D01*
X9116Y7731D01*
X9092Y7717D01*
X9073Y7697D01*
X9059Y7673D01*
X9052Y7647D01*
Y7619D01*
X9059Y7592D01*
X9073Y7568D01*
X9092Y7549D01*
X9116Y7535D01*
X9143Y7528D01*
X9171D01*
X9197Y7535D01*
X9221Y7549D01*
X9241Y7568D01*
X9255Y7592D01*
X9262Y7619D01*
Y7647D01*
X9255Y7673D01*
X9241Y7697D01*
X9221Y7717D01*
X9197Y7731D01*
X9171Y7738D01*
D02*
G37*
G36*
X8917D02*
X8889D01*
X8862Y7731D01*
X8838Y7717D01*
X8819Y7697D01*
X8805Y7673D01*
X8798Y7647D01*
Y7619D01*
X8805Y7592D01*
X8819Y7568D01*
X8838Y7549D01*
X8862Y7535D01*
X8889Y7528D01*
X8917D01*
X8943Y7535D01*
X8967Y7549D01*
X8987Y7568D01*
X9001Y7592D01*
X9008Y7619D01*
Y7647D01*
X9001Y7673D01*
X8987Y7697D01*
X8967Y7717D01*
X8943Y7731D01*
X8917Y7738D01*
D02*
G37*
G36*
X8663D02*
X8635D01*
X8608Y7731D01*
X8584Y7717D01*
X8565Y7697D01*
X8551Y7673D01*
X8544Y7647D01*
Y7619D01*
X8551Y7592D01*
X8565Y7568D01*
X8584Y7549D01*
X8608Y7535D01*
X8635Y7528D01*
X8663D01*
X8689Y7535D01*
X8713Y7549D01*
X8733Y7568D01*
X8747Y7592D01*
X8754Y7619D01*
Y7647D01*
X8747Y7673D01*
X8733Y7697D01*
X8713Y7717D01*
X8689Y7731D01*
X8663Y7738D01*
D02*
G37*
G36*
X7647D02*
X7619D01*
X7592Y7731D01*
X7568Y7717D01*
X7549Y7697D01*
X7535Y7673D01*
X7528Y7647D01*
Y7619D01*
X7535Y7592D01*
X7549Y7568D01*
X7568Y7549D01*
X7592Y7535D01*
X7619Y7528D01*
X7647D01*
X7673Y7535D01*
X7697Y7549D01*
X7717Y7568D01*
X7731Y7592D01*
X7738Y7619D01*
Y7647D01*
X7731Y7673D01*
X7717Y7697D01*
X7697Y7717D01*
X7673Y7731D01*
X7647Y7738D01*
D02*
G37*
G36*
X7393D02*
X7365D01*
X7338Y7731D01*
X7314Y7717D01*
X7295Y7697D01*
X7281Y7673D01*
X7274Y7647D01*
Y7619D01*
X7281Y7592D01*
X7295Y7568D01*
X7314Y7549D01*
X7338Y7535D01*
X7365Y7528D01*
X7393D01*
X7419Y7535D01*
X7443Y7549D01*
X7463Y7568D01*
X7477Y7592D01*
X7484Y7619D01*
Y7647D01*
X7477Y7673D01*
X7463Y7697D01*
X7443Y7717D01*
X7419Y7731D01*
X7393Y7738D01*
D02*
G37*
G36*
X7139D02*
X7111D01*
X7084Y7731D01*
X7060Y7717D01*
X7041Y7697D01*
X7027Y7673D01*
X7020Y7647D01*
Y7619D01*
X7027Y7592D01*
X7041Y7568D01*
X7060Y7549D01*
X7084Y7535D01*
X7111Y7528D01*
X7139D01*
X7165Y7535D01*
X7189Y7549D01*
X7209Y7568D01*
X7223Y7592D01*
X7230Y7619D01*
Y7647D01*
X7223Y7673D01*
X7209Y7697D01*
X7189Y7717D01*
X7165Y7731D01*
X7139Y7738D01*
D02*
G37*
G36*
X6885D02*
X6857D01*
X6830Y7731D01*
X6806Y7717D01*
X6787Y7697D01*
X6773Y7673D01*
X6766Y7647D01*
Y7619D01*
X6773Y7592D01*
X6787Y7568D01*
X6806Y7549D01*
X6830Y7535D01*
X6857Y7528D01*
X6885D01*
X6911Y7535D01*
X6935Y7549D01*
X6955Y7568D01*
X6969Y7592D01*
X6976Y7619D01*
Y7647D01*
X6969Y7673D01*
X6955Y7697D01*
X6935Y7717D01*
X6911Y7731D01*
X6885Y7738D01*
D02*
G37*
G36*
X6631D02*
X6603D01*
X6576Y7731D01*
X6552Y7717D01*
X6533Y7697D01*
X6519Y7673D01*
X6512Y7647D01*
Y7619D01*
X6519Y7592D01*
X6533Y7568D01*
X6552Y7549D01*
X6576Y7535D01*
X6603Y7528D01*
X6631D01*
X6657Y7535D01*
X6681Y7549D01*
X6701Y7568D01*
X6715Y7592D01*
X6722Y7619D01*
Y7647D01*
X6715Y7673D01*
X6701Y7697D01*
X6681Y7717D01*
X6657Y7731D01*
X6631Y7738D01*
D02*
G37*
G36*
X6377D02*
X6349D01*
X6322Y7731D01*
X6298Y7717D01*
X6279Y7697D01*
X6265Y7673D01*
X6258Y7647D01*
Y7619D01*
X6265Y7592D01*
X6279Y7568D01*
X6298Y7549D01*
X6322Y7535D01*
X6349Y7528D01*
X6377D01*
X6403Y7535D01*
X6427Y7549D01*
X6447Y7568D01*
X6461Y7592D01*
X6468Y7619D01*
Y7647D01*
X6461Y7673D01*
X6447Y7697D01*
X6427Y7717D01*
X6403Y7731D01*
X6377Y7738D01*
D02*
G37*
G36*
X6123D02*
X6095D01*
X6068Y7731D01*
X6044Y7717D01*
X6025Y7697D01*
X6011Y7673D01*
X6004Y7647D01*
Y7619D01*
X6011Y7592D01*
X6025Y7568D01*
X6044Y7549D01*
X6068Y7535D01*
X6095Y7528D01*
X6123D01*
X6149Y7535D01*
X6173Y7549D01*
X6193Y7568D01*
X6207Y7592D01*
X6214Y7619D01*
Y7647D01*
X6207Y7673D01*
X6193Y7697D01*
X6173Y7717D01*
X6149Y7731D01*
X6123Y7738D01*
D02*
G37*
G36*
X5869D02*
X5841D01*
X5814Y7731D01*
X5790Y7717D01*
X5771Y7697D01*
X5757Y7673D01*
X5750Y7647D01*
Y7619D01*
X5757Y7592D01*
X5771Y7568D01*
X5790Y7549D01*
X5814Y7535D01*
X5841Y7528D01*
X5869D01*
X5895Y7535D01*
X5919Y7549D01*
X5939Y7568D01*
X5953Y7592D01*
X5960Y7619D01*
Y7647D01*
X5953Y7673D01*
X5939Y7697D01*
X5919Y7717D01*
X5895Y7731D01*
X5869Y7738D01*
D02*
G37*
G36*
X10695Y7484D02*
X10667D01*
X10640Y7477D01*
X10616Y7463D01*
X10597Y7443D01*
X10583Y7419D01*
X10576Y7393D01*
Y7365D01*
X10583Y7338D01*
X10597Y7314D01*
X10616Y7295D01*
X10640Y7281D01*
X10667Y7274D01*
X10695D01*
X10721Y7281D01*
X10745Y7295D01*
X10765Y7314D01*
X10779Y7338D01*
X10786Y7365D01*
Y7393D01*
X10779Y7419D01*
X10765Y7443D01*
X10745Y7463D01*
X10721Y7477D01*
X10695Y7484D01*
D02*
G37*
G36*
X10441D02*
X10413D01*
X10386Y7477D01*
X10362Y7463D01*
X10343Y7443D01*
X10329Y7419D01*
X10322Y7393D01*
Y7365D01*
X10329Y7338D01*
X10343Y7314D01*
X10362Y7295D01*
X10386Y7281D01*
X10413Y7274D01*
X10441D01*
X10467Y7281D01*
X10491Y7295D01*
X10511Y7314D01*
X10525Y7338D01*
X10532Y7365D01*
Y7393D01*
X10525Y7419D01*
X10511Y7443D01*
X10491Y7463D01*
X10467Y7477D01*
X10441Y7484D01*
D02*
G37*
G36*
X10187D02*
X10159D01*
X10132Y7477D01*
X10108Y7463D01*
X10089Y7443D01*
X10075Y7419D01*
X10068Y7393D01*
Y7365D01*
X10075Y7338D01*
X10089Y7314D01*
X10108Y7295D01*
X10132Y7281D01*
X10159Y7274D01*
X10187D01*
X10213Y7281D01*
X10237Y7295D01*
X10257Y7314D01*
X10271Y7338D01*
X10278Y7365D01*
Y7393D01*
X10271Y7419D01*
X10257Y7443D01*
X10237Y7463D01*
X10213Y7477D01*
X10187Y7484D01*
D02*
G37*
G36*
X9933D02*
X9905D01*
X9878Y7477D01*
X9854Y7463D01*
X9835Y7443D01*
X9821Y7419D01*
X9814Y7393D01*
Y7365D01*
X9821Y7338D01*
X9835Y7314D01*
X9854Y7295D01*
X9878Y7281D01*
X9905Y7274D01*
X9933D01*
X9959Y7281D01*
X9983Y7295D01*
X10003Y7314D01*
X10017Y7338D01*
X10024Y7365D01*
Y7393D01*
X10017Y7419D01*
X10003Y7443D01*
X9983Y7463D01*
X9959Y7477D01*
X9933Y7484D01*
D02*
G37*
G36*
X9679D02*
X9651D01*
X9624Y7477D01*
X9600Y7463D01*
X9581Y7443D01*
X9567Y7419D01*
X9560Y7393D01*
Y7365D01*
X9567Y7338D01*
X9581Y7314D01*
X9600Y7295D01*
X9624Y7281D01*
X9651Y7274D01*
X9679D01*
X9705Y7281D01*
X9729Y7295D01*
X9749Y7314D01*
X9763Y7338D01*
X9770Y7365D01*
Y7393D01*
X9763Y7419D01*
X9749Y7443D01*
X9729Y7463D01*
X9705Y7477D01*
X9679Y7484D01*
D02*
G37*
G36*
X9425D02*
X9397D01*
X9370Y7477D01*
X9346Y7463D01*
X9327Y7443D01*
X9313Y7419D01*
X9306Y7393D01*
Y7365D01*
X9313Y7338D01*
X9327Y7314D01*
X9346Y7295D01*
X9370Y7281D01*
X9397Y7274D01*
X9425D01*
X9451Y7281D01*
X9475Y7295D01*
X9495Y7314D01*
X9509Y7338D01*
X9516Y7365D01*
Y7393D01*
X9509Y7419D01*
X9495Y7443D01*
X9475Y7463D01*
X9451Y7477D01*
X9425Y7484D01*
D02*
G37*
G36*
X8917D02*
X8889D01*
X8862Y7477D01*
X8838Y7463D01*
X8819Y7443D01*
X8805Y7419D01*
X8798Y7393D01*
Y7365D01*
X8805Y7338D01*
X8819Y7314D01*
X8838Y7295D01*
X8862Y7281D01*
X8889Y7274D01*
X8917D01*
X8943Y7281D01*
X8967Y7295D01*
X8987Y7314D01*
X9001Y7338D01*
X9008Y7365D01*
Y7393D01*
X9001Y7419D01*
X8987Y7443D01*
X8967Y7463D01*
X8943Y7477D01*
X8917Y7484D01*
D02*
G37*
G36*
X8663D02*
X8635D01*
X8608Y7477D01*
X8584Y7463D01*
X8565Y7443D01*
X8551Y7419D01*
X8544Y7393D01*
Y7365D01*
X8551Y7338D01*
X8565Y7314D01*
X8584Y7295D01*
X8608Y7281D01*
X8635Y7274D01*
X8663D01*
X8689Y7281D01*
X8713Y7295D01*
X8733Y7314D01*
X8747Y7338D01*
X8754Y7365D01*
Y7393D01*
X8747Y7419D01*
X8733Y7443D01*
X8713Y7463D01*
X8689Y7477D01*
X8663Y7484D01*
D02*
G37*
G36*
X8409D02*
X8381D01*
X8354Y7477D01*
X8330Y7463D01*
X8311Y7443D01*
X8297Y7419D01*
X8290Y7393D01*
Y7365D01*
X8297Y7338D01*
X8311Y7314D01*
X8330Y7295D01*
X8354Y7281D01*
X8381Y7274D01*
X8409D01*
X8435Y7281D01*
X8459Y7295D01*
X8479Y7314D01*
X8493Y7338D01*
X8500Y7365D01*
Y7393D01*
X8493Y7419D01*
X8479Y7443D01*
X8459Y7463D01*
X8435Y7477D01*
X8409Y7484D01*
D02*
G37*
G36*
X7647D02*
X7619D01*
X7592Y7477D01*
X7568Y7463D01*
X7549Y7443D01*
X7535Y7419D01*
X7528Y7393D01*
Y7365D01*
X7535Y7338D01*
X7549Y7314D01*
X7568Y7295D01*
X7592Y7281D01*
X7619Y7274D01*
X7647D01*
X7673Y7281D01*
X7697Y7295D01*
X7717Y7314D01*
X7731Y7338D01*
X7738Y7365D01*
Y7393D01*
X7731Y7419D01*
X7717Y7443D01*
X7697Y7463D01*
X7673Y7477D01*
X7647Y7484D01*
D02*
G37*
G36*
X7393D02*
X7365D01*
X7338Y7477D01*
X7314Y7463D01*
X7295Y7443D01*
X7281Y7419D01*
X7274Y7393D01*
Y7365D01*
X7281Y7338D01*
X7295Y7314D01*
X7314Y7295D01*
X7338Y7281D01*
X7365Y7274D01*
X7393D01*
X7419Y7281D01*
X7443Y7295D01*
X7463Y7314D01*
X7477Y7338D01*
X7484Y7365D01*
Y7393D01*
X7477Y7419D01*
X7463Y7443D01*
X7443Y7463D01*
X7419Y7477D01*
X7393Y7484D01*
D02*
G37*
G36*
X7139D02*
X7111D01*
X7084Y7477D01*
X7060Y7463D01*
X7041Y7443D01*
X7027Y7419D01*
X7020Y7393D01*
Y7365D01*
X7027Y7338D01*
X7041Y7314D01*
X7060Y7295D01*
X7084Y7281D01*
X7111Y7274D01*
X7139D01*
X7165Y7281D01*
X7189Y7295D01*
X7209Y7314D01*
X7223Y7338D01*
X7230Y7365D01*
Y7393D01*
X7223Y7419D01*
X7209Y7443D01*
X7189Y7463D01*
X7165Y7477D01*
X7139Y7484D01*
D02*
G37*
G36*
X6885D02*
X6857D01*
X6830Y7477D01*
X6806Y7463D01*
X6787Y7443D01*
X6773Y7419D01*
X6766Y7393D01*
Y7365D01*
X6773Y7338D01*
X6787Y7314D01*
X6806Y7295D01*
X6830Y7281D01*
X6857Y7274D01*
X6885D01*
X6911Y7281D01*
X6935Y7295D01*
X6955Y7314D01*
X6969Y7338D01*
X6976Y7365D01*
Y7393D01*
X6969Y7419D01*
X6955Y7443D01*
X6935Y7463D01*
X6911Y7477D01*
X6885Y7484D01*
D02*
G37*
G36*
X6631D02*
X6603D01*
X6576Y7477D01*
X6552Y7463D01*
X6533Y7443D01*
X6519Y7419D01*
X6512Y7393D01*
Y7365D01*
X6519Y7338D01*
X6533Y7314D01*
X6552Y7295D01*
X6576Y7281D01*
X6603Y7274D01*
X6631D01*
X6657Y7281D01*
X6681Y7295D01*
X6701Y7314D01*
X6715Y7338D01*
X6722Y7365D01*
Y7393D01*
X6715Y7419D01*
X6701Y7443D01*
X6681Y7463D01*
X6657Y7477D01*
X6631Y7484D01*
D02*
G37*
G36*
X6377D02*
X6349D01*
X6322Y7477D01*
X6298Y7463D01*
X6279Y7443D01*
X6265Y7419D01*
X6258Y7393D01*
Y7365D01*
X6265Y7338D01*
X6279Y7314D01*
X6298Y7295D01*
X6322Y7281D01*
X6349Y7274D01*
X6377D01*
X6403Y7281D01*
X6427Y7295D01*
X6447Y7314D01*
X6461Y7338D01*
X6468Y7365D01*
Y7393D01*
X6461Y7419D01*
X6447Y7443D01*
X6427Y7463D01*
X6403Y7477D01*
X6377Y7484D01*
D02*
G37*
G36*
X6123D02*
X6095D01*
X6068Y7477D01*
X6044Y7463D01*
X6025Y7443D01*
X6011Y7419D01*
X6004Y7393D01*
Y7365D01*
X6011Y7338D01*
X6025Y7314D01*
X6044Y7295D01*
X6068Y7281D01*
X6095Y7274D01*
X6123D01*
X6149Y7281D01*
X6173Y7295D01*
X6193Y7314D01*
X6207Y7338D01*
X6214Y7365D01*
Y7393D01*
X6207Y7419D01*
X6193Y7443D01*
X6173Y7463D01*
X6149Y7477D01*
X6123Y7484D01*
D02*
G37*
G36*
X5869D02*
X5841D01*
X5814Y7477D01*
X5790Y7463D01*
X5771Y7443D01*
X5757Y7419D01*
X5750Y7393D01*
Y7365D01*
X5757Y7338D01*
X5771Y7314D01*
X5790Y7295D01*
X5814Y7281D01*
X5841Y7274D01*
X5869D01*
X5895Y7281D01*
X5919Y7295D01*
X5939Y7314D01*
X5953Y7338D01*
X5960Y7365D01*
Y7393D01*
X5953Y7419D01*
X5939Y7443D01*
X5919Y7463D01*
X5895Y7477D01*
X5869Y7484D01*
D02*
G37*
G36*
X4665Y6328D02*
X4631D01*
X4598Y6319D01*
X4568Y6302D01*
X4544Y6277D01*
X4527Y6248D01*
X4518Y6215D01*
Y6180D01*
X4520Y6175D01*
X4278Y5933D01*
X4266Y5918D01*
X4258Y5900D01*
X4256Y5880D01*
Y3479D01*
X1052D01*
X1047Y3490D01*
X1323Y3766D01*
X1335Y3782D01*
X1343Y3800D01*
X1345Y3820D01*
Y4172D01*
X1343Y4191D01*
X1335Y4209D01*
X1323Y4225D01*
X1025Y4524D01*
X1027Y4529D01*
X1033Y4562D01*
Y4595D01*
X1027Y4628D01*
X1014Y4659D01*
X995Y4687D01*
X972Y4710D01*
X944Y4729D01*
X913Y4742D01*
X880Y4748D01*
X847D01*
X814Y4742D01*
X783Y4729D01*
X755Y4710D01*
X732Y4687D01*
X713Y4659D01*
X700Y4628D01*
X694Y4595D01*
Y4562D01*
X700Y4529D01*
X713Y4498D01*
X732Y4470D01*
X755Y4447D01*
X783Y4428D01*
X814Y4415D01*
X847Y4409D01*
X880D01*
X913Y4415D01*
X918Y4417D01*
X1195Y4141D01*
Y3851D01*
X918Y3574D01*
X913Y3576D01*
X880Y3583D01*
X847D01*
X814Y3576D01*
X783Y3564D01*
X755Y3545D01*
X732Y3521D01*
X713Y3494D01*
X700Y3463D01*
X694Y3430D01*
Y3396D01*
X700Y3364D01*
X713Y3333D01*
X732Y3305D01*
X755Y3281D01*
X783Y3263D01*
X814Y3250D01*
X847Y3243D01*
X880D01*
X913Y3250D01*
X944Y3263D01*
X972Y3281D01*
X995Y3305D01*
X1011Y3329D01*
X5570D01*
X5573Y3324D01*
X5597Y3300D01*
X5602Y3297D01*
Y3164D01*
X5604Y3144D01*
X5612Y3126D01*
X5624Y3110D01*
X5676Y3058D01*
X5691Y3046D01*
X5710Y3039D01*
X5729Y3036D01*
X8928D01*
X8948Y3039D01*
X8966Y3046D01*
X8981Y3058D01*
X9286Y3363D01*
X9298Y3379D01*
X9302Y3389D01*
X9305Y3397D01*
X9307Y3407D01*
X9308Y3416D01*
Y3858D01*
X9305Y3878D01*
X9298Y3896D01*
X9286Y3912D01*
X9257Y3940D01*
Y4275D01*
X9262Y4277D01*
X9286Y4302D01*
X9303Y4331D01*
X9312Y4364D01*
Y4399D01*
X9303Y4432D01*
X9286Y4461D01*
X9262Y4486D01*
X9232Y4503D01*
X9199Y4512D01*
X9165D01*
X9132Y4503D01*
X9102Y4486D01*
X9078Y4461D01*
X9061Y4432D01*
X9052Y4399D01*
Y4364D01*
X9061Y4331D01*
X9078Y4302D01*
X9102Y4277D01*
X9107Y4275D01*
Y3909D01*
X9110Y3890D01*
X9117Y3872D01*
X9129Y3856D01*
X9158Y3827D01*
Y3447D01*
X8897Y3187D01*
X5760D01*
X5752Y3195D01*
Y3297D01*
X5757Y3300D01*
X5781Y3324D01*
X5798Y3353D01*
X5807Y3386D01*
Y3421D01*
X5798Y3454D01*
X5781Y3483D01*
X5757Y3508D01*
X5727Y3525D01*
X5694Y3534D01*
X5660D01*
X5627Y3525D01*
X5597Y3508D01*
X5573Y3483D01*
X5570Y3479D01*
X4406D01*
Y5849D01*
X4626Y6069D01*
X4631Y6068D01*
X4665D01*
X4698Y6076D01*
X4728Y6094D01*
X4752Y6118D01*
X4769Y6147D01*
X4778Y6180D01*
Y6215D01*
X4769Y6248D01*
X4752Y6277D01*
X4728Y6302D01*
X4698Y6319D01*
X4665Y6328D01*
D02*
G37*
G36*
X8997Y5977D02*
X8727D01*
Y5707D01*
X8997D01*
Y5977D01*
D02*
G37*
G36*
X7515D02*
X7245D01*
Y5707D01*
X7515D01*
Y5977D01*
D02*
G37*
G36*
X5681Y5961D02*
X5643D01*
X5606Y5951D01*
X5573Y5932D01*
X5546Y5905D01*
X5527Y5872D01*
X5517Y5836D01*
Y5798D01*
X5527Y5761D01*
X5546Y5728D01*
X5573Y5701D01*
X5606Y5682D01*
X5643Y5672D01*
X5681D01*
X5717Y5682D01*
X5750Y5701D01*
X5777Y5728D01*
X5796Y5761D01*
X5806Y5798D01*
Y5836D01*
X5796Y5872D01*
X5777Y5905D01*
X5750Y5932D01*
X5717Y5951D01*
X5681Y5961D01*
D02*
G37*
G36*
X5694Y6620D02*
X5660D01*
X5627Y6611D01*
X5597Y6594D01*
X5573Y6570D01*
X5556Y6540D01*
X5547Y6507D01*
Y6473D01*
X5556Y6440D01*
X5573Y6410D01*
X5597Y6386D01*
X5627Y6369D01*
X5660Y6360D01*
X5694D01*
X5699Y6361D01*
X6102Y5959D01*
X6100Y5943D01*
X6081Y5932D01*
X6054Y5905D01*
X6035Y5872D01*
X6025Y5836D01*
Y5798D01*
X6035Y5761D01*
X6054Y5728D01*
X6081Y5701D01*
X6114Y5682D01*
X6151Y5672D01*
X6189D01*
X6225Y5682D01*
X6258Y5701D01*
X6285Y5728D01*
X6304Y5761D01*
X6314Y5798D01*
Y5836D01*
X6304Y5872D01*
X6285Y5905D01*
X6272Y5919D01*
X6277Y5930D01*
X6424D01*
X7429Y4925D01*
X7444Y4913D01*
X7462Y4906D01*
X7482Y4903D01*
X8948D01*
X8951Y4899D01*
X8975Y4874D01*
X9005Y4857D01*
X9038Y4848D01*
X9072D01*
X9105Y4857D01*
X9135Y4874D01*
X9159Y4899D01*
X9176Y4928D01*
X9185Y4961D01*
Y4996D01*
X9176Y5029D01*
X9159Y5058D01*
X9135Y5082D01*
X9105Y5100D01*
X9072Y5108D01*
X9038D01*
X9005Y5100D01*
X8975Y5082D01*
X8951Y5058D01*
X8948Y5053D01*
X7513D01*
X6871Y5695D01*
X6876Y5707D01*
X6890D01*
X6924Y5716D01*
X6955Y5734D01*
X6980Y5759D01*
X6998Y5790D01*
X7007Y5824D01*
Y5860D01*
X6998Y5894D01*
X6980Y5925D01*
X6955Y5950D01*
X6924Y5968D01*
X6890Y5977D01*
X6854D01*
X6820Y5968D01*
X6789Y5950D01*
X6764Y5925D01*
X6746Y5894D01*
X6737Y5860D01*
Y5846D01*
X6725Y5841D01*
X6508Y6058D01*
X6492Y6070D01*
X6474Y6078D01*
X6455Y6080D01*
X6192D01*
X5805Y6467D01*
X5807Y6473D01*
Y6507D01*
X5798Y6540D01*
X5781Y6570D01*
X5757Y6594D01*
X5727Y6611D01*
X5694Y6620D01*
D02*
G37*
G36*
X6189Y4081D02*
X6151D01*
X6114Y4071D01*
X6081Y4052D01*
X6054Y4026D01*
X6035Y3993D01*
X6025Y3956D01*
Y3918D01*
X6035Y3881D01*
X6054Y3848D01*
X6081Y3822D01*
X6114Y3803D01*
X6151Y3793D01*
X6189D01*
X6225Y3803D01*
X6258Y3822D01*
X6285Y3848D01*
X6304Y3881D01*
X6314Y3918D01*
Y3956D01*
X6304Y3993D01*
X6285Y4026D01*
X6258Y4052D01*
X6225Y4071D01*
X6189Y4081D01*
D02*
G37*
G36*
X5681D02*
X5643D01*
X5606Y4071D01*
X5573Y4052D01*
X5546Y4026D01*
X5527Y3993D01*
X5517Y3956D01*
Y3918D01*
X5527Y3881D01*
X5546Y3848D01*
X5573Y3822D01*
X5606Y3803D01*
X5643Y3793D01*
X5681D01*
X5717Y3803D01*
X5750Y3822D01*
X5777Y3848D01*
X5796Y3881D01*
X5806Y3918D01*
Y3956D01*
X5796Y3993D01*
X5777Y4026D01*
X5750Y4052D01*
X5717Y4071D01*
X5681Y4081D01*
D02*
G37*
G36*
X8921Y4008D02*
X8651D01*
Y3738D01*
X8921D01*
Y4008D01*
D02*
G37*
G36*
X7509D02*
X7239D01*
Y3738D01*
X7509D01*
Y4008D01*
D02*
G37*
G36*
X6883D02*
X6848D01*
X6813Y3999D01*
X6783Y3982D01*
X6758Y3956D01*
X6740Y3926D01*
X6731Y3891D01*
Y3856D01*
X6740Y3821D01*
X6758Y3791D01*
X6783Y3765D01*
X6813Y3748D01*
X6848Y3738D01*
X6883D01*
X6918Y3748D01*
X6948Y3765D01*
X6974Y3791D01*
X6991Y3821D01*
X7001Y3856D01*
Y3891D01*
X6991Y3926D01*
X6974Y3956D01*
X6948Y3982D01*
X6918Y3999D01*
X6883Y4008D01*
D02*
G37*
G36*
X10961Y2658D02*
X10934D01*
X10907Y2651D01*
X10883Y2637D01*
X10863Y2617D01*
X10850Y2593D01*
X10842Y2567D01*
Y2539D01*
X10850Y2512D01*
X10863Y2488D01*
X10883Y2469D01*
X10907Y2455D01*
X10934Y2448D01*
X10961D01*
X10988Y2455D01*
X11012Y2469D01*
X11031Y2488D01*
X11045Y2512D01*
X11052Y2539D01*
Y2567D01*
X11045Y2593D01*
X11031Y2617D01*
X11012Y2637D01*
X10988Y2651D01*
X10961Y2658D01*
D02*
G37*
G36*
X10707D02*
X10680D01*
X10653Y2651D01*
X10629Y2637D01*
X10609Y2617D01*
X10596Y2593D01*
X10588Y2567D01*
Y2539D01*
X10596Y2512D01*
X10609Y2488D01*
X10629Y2469D01*
X10653Y2455D01*
X10680Y2448D01*
X10707D01*
X10734Y2455D01*
X10758Y2469D01*
X10777Y2488D01*
X10791Y2512D01*
X10798Y2539D01*
Y2567D01*
X10791Y2593D01*
X10777Y2617D01*
X10758Y2637D01*
X10734Y2651D01*
X10707Y2658D01*
D02*
G37*
G36*
X10453D02*
X10426D01*
X10399Y2651D01*
X10375Y2637D01*
X10355Y2617D01*
X10342Y2593D01*
X10334Y2567D01*
Y2539D01*
X10342Y2512D01*
X10355Y2488D01*
X10375Y2469D01*
X10399Y2455D01*
X10426Y2448D01*
X10453D01*
X10480Y2455D01*
X10504Y2469D01*
X10523Y2488D01*
X10537Y2512D01*
X10544Y2539D01*
Y2567D01*
X10537Y2593D01*
X10523Y2617D01*
X10504Y2637D01*
X10480Y2651D01*
X10453Y2658D01*
D02*
G37*
G36*
X10199D02*
X10172D01*
X10145Y2651D01*
X10121Y2637D01*
X10101Y2617D01*
X10088Y2593D01*
X10080Y2567D01*
Y2539D01*
X10088Y2512D01*
X10101Y2488D01*
X10121Y2469D01*
X10145Y2455D01*
X10172Y2448D01*
X10199D01*
X10226Y2455D01*
X10250Y2469D01*
X10269Y2488D01*
X10283Y2512D01*
X10290Y2539D01*
Y2567D01*
X10283Y2593D01*
X10269Y2617D01*
X10250Y2637D01*
X10226Y2651D01*
X10199Y2658D01*
D02*
G37*
G36*
X9945D02*
X9918D01*
X9891Y2651D01*
X9867Y2637D01*
X9847Y2617D01*
X9834Y2593D01*
X9826Y2567D01*
Y2539D01*
X9834Y2512D01*
X9847Y2488D01*
X9867Y2469D01*
X9891Y2455D01*
X9918Y2448D01*
X9945D01*
X9972Y2455D01*
X9996Y2469D01*
X10015Y2488D01*
X10029Y2512D01*
X10036Y2539D01*
Y2567D01*
X10029Y2593D01*
X10015Y2617D01*
X9996Y2637D01*
X9972Y2651D01*
X9945Y2658D01*
D02*
G37*
G36*
X9691D02*
X9664D01*
X9637Y2651D01*
X9613Y2637D01*
X9593Y2617D01*
X9580Y2593D01*
X9572Y2567D01*
Y2539D01*
X9580Y2512D01*
X9593Y2488D01*
X9613Y2469D01*
X9637Y2455D01*
X9664Y2448D01*
X9691D01*
X9718Y2455D01*
X9742Y2469D01*
X9761Y2488D01*
X9775Y2512D01*
X9782Y2539D01*
Y2567D01*
X9775Y2593D01*
X9761Y2617D01*
X9742Y2637D01*
X9718Y2651D01*
X9691Y2658D01*
D02*
G37*
G36*
X8929D02*
X8902D01*
X8875Y2651D01*
X8851Y2637D01*
X8831Y2617D01*
X8818Y2593D01*
X8810Y2567D01*
Y2539D01*
X8818Y2512D01*
X8831Y2488D01*
X8851Y2469D01*
X8875Y2455D01*
X8902Y2448D01*
X8929D01*
X8956Y2455D01*
X8980Y2469D01*
X8999Y2488D01*
X9013Y2512D01*
X9020Y2539D01*
Y2567D01*
X9013Y2593D01*
X8999Y2617D01*
X8980Y2637D01*
X8956Y2651D01*
X8929Y2658D01*
D02*
G37*
G36*
X8675D02*
X8648D01*
X8621Y2651D01*
X8597Y2637D01*
X8577Y2617D01*
X8564Y2593D01*
X8556Y2567D01*
Y2539D01*
X8564Y2512D01*
X8577Y2488D01*
X8597Y2469D01*
X8621Y2455D01*
X8648Y2448D01*
X8675D01*
X8702Y2455D01*
X8726Y2469D01*
X8745Y2488D01*
X8759Y2512D01*
X8766Y2539D01*
Y2567D01*
X8759Y2593D01*
X8745Y2617D01*
X8726Y2637D01*
X8702Y2651D01*
X8675Y2658D01*
D02*
G37*
G36*
X8421D02*
X8394D01*
X8367Y2651D01*
X8343Y2637D01*
X8323Y2617D01*
X8310Y2593D01*
X8302Y2567D01*
Y2539D01*
X8310Y2512D01*
X8323Y2488D01*
X8343Y2469D01*
X8367Y2455D01*
X8394Y2448D01*
X8421D01*
X8448Y2455D01*
X8472Y2469D01*
X8491Y2488D01*
X8505Y2512D01*
X8512Y2539D01*
Y2567D01*
X8505Y2593D01*
X8491Y2617D01*
X8472Y2637D01*
X8448Y2651D01*
X8421Y2658D01*
D02*
G37*
G36*
X8167D02*
X8140D01*
X8113Y2651D01*
X8089Y2637D01*
X8069Y2617D01*
X8056Y2593D01*
X8048Y2567D01*
Y2539D01*
X8056Y2512D01*
X8069Y2488D01*
X8089Y2469D01*
X8113Y2455D01*
X8140Y2448D01*
X8167D01*
X8194Y2455D01*
X8218Y2469D01*
X8237Y2488D01*
X8251Y2512D01*
X8258Y2539D01*
Y2567D01*
X8251Y2593D01*
X8237Y2617D01*
X8218Y2637D01*
X8194Y2651D01*
X8167Y2658D01*
D02*
G37*
G36*
X7913D02*
X7886D01*
X7859Y2651D01*
X7835Y2637D01*
X7815Y2617D01*
X7802Y2593D01*
X7794Y2567D01*
Y2539D01*
X7802Y2512D01*
X7815Y2488D01*
X7835Y2469D01*
X7859Y2455D01*
X7886Y2448D01*
X7913D01*
X7940Y2455D01*
X7964Y2469D01*
X7983Y2488D01*
X7997Y2512D01*
X8004Y2539D01*
Y2567D01*
X7997Y2593D01*
X7983Y2617D01*
X7964Y2637D01*
X7940Y2651D01*
X7913Y2658D01*
D02*
G37*
G36*
X7659D02*
X7632D01*
X7605Y2651D01*
X7581Y2637D01*
X7561Y2617D01*
X7548Y2593D01*
X7540Y2567D01*
Y2539D01*
X7548Y2512D01*
X7561Y2488D01*
X7581Y2469D01*
X7605Y2455D01*
X7632Y2448D01*
X7659D01*
X7686Y2455D01*
X7710Y2469D01*
X7729Y2488D01*
X7743Y2512D01*
X7750Y2539D01*
Y2567D01*
X7743Y2593D01*
X7729Y2617D01*
X7710Y2637D01*
X7686Y2651D01*
X7659Y2658D01*
D02*
G37*
G36*
X7405D02*
X7378D01*
X7351Y2651D01*
X7327Y2637D01*
X7307Y2617D01*
X7294Y2593D01*
X7286Y2567D01*
Y2539D01*
X7294Y2512D01*
X7307Y2488D01*
X7327Y2469D01*
X7351Y2455D01*
X7378Y2448D01*
X7405D01*
X7432Y2455D01*
X7456Y2469D01*
X7475Y2488D01*
X7489Y2512D01*
X7496Y2539D01*
Y2567D01*
X7489Y2593D01*
X7475Y2617D01*
X7456Y2637D01*
X7432Y2651D01*
X7405Y2658D01*
D02*
G37*
G36*
X7151D02*
X7124D01*
X7097Y2651D01*
X7073Y2637D01*
X7053Y2617D01*
X7040Y2593D01*
X7032Y2567D01*
Y2539D01*
X7040Y2512D01*
X7053Y2488D01*
X7073Y2469D01*
X7097Y2455D01*
X7124Y2448D01*
X7151D01*
X7178Y2455D01*
X7202Y2469D01*
X7221Y2488D01*
X7235Y2512D01*
X7242Y2539D01*
Y2567D01*
X7235Y2593D01*
X7221Y2617D01*
X7202Y2637D01*
X7178Y2651D01*
X7151Y2658D01*
D02*
G37*
G36*
X6897D02*
X6870D01*
X6843Y2651D01*
X6819Y2637D01*
X6799Y2617D01*
X6786Y2593D01*
X6778Y2567D01*
Y2539D01*
X6786Y2512D01*
X6799Y2488D01*
X6819Y2469D01*
X6843Y2455D01*
X6870Y2448D01*
X6897D01*
X6924Y2455D01*
X6948Y2469D01*
X6967Y2488D01*
X6981Y2512D01*
X6988Y2539D01*
Y2567D01*
X6981Y2593D01*
X6967Y2617D01*
X6948Y2637D01*
X6924Y2651D01*
X6897Y2658D01*
D02*
G37*
G36*
X6643D02*
X6616D01*
X6589Y2651D01*
X6565Y2637D01*
X6545Y2617D01*
X6532Y2593D01*
X6524Y2567D01*
Y2539D01*
X6532Y2512D01*
X6545Y2488D01*
X6565Y2469D01*
X6589Y2455D01*
X6616Y2448D01*
X6643D01*
X6670Y2455D01*
X6694Y2469D01*
X6713Y2488D01*
X6727Y2512D01*
X6734Y2539D01*
Y2567D01*
X6727Y2593D01*
X6713Y2617D01*
X6694Y2637D01*
X6670Y2651D01*
X6643Y2658D01*
D02*
G37*
G36*
X6135D02*
X6108D01*
X6081Y2651D01*
X6057Y2637D01*
X6037Y2617D01*
X6024Y2593D01*
X6016Y2567D01*
Y2539D01*
X6024Y2512D01*
X6037Y2488D01*
X6057Y2469D01*
X6081Y2455D01*
X6108Y2448D01*
X6135D01*
X6162Y2455D01*
X6186Y2469D01*
X6205Y2488D01*
X6219Y2512D01*
X6226Y2539D01*
Y2567D01*
X6219Y2593D01*
X6205Y2617D01*
X6186Y2637D01*
X6162Y2651D01*
X6135Y2658D01*
D02*
G37*
G36*
X5881D02*
X5854D01*
X5827Y2651D01*
X5803Y2637D01*
X5783Y2617D01*
X5770Y2593D01*
X5762Y2567D01*
Y2539D01*
X5770Y2512D01*
X5783Y2488D01*
X5803Y2469D01*
X5827Y2455D01*
X5854Y2448D01*
X5881D01*
X5908Y2455D01*
X5932Y2469D01*
X5951Y2488D01*
X5965Y2512D01*
X5972Y2539D01*
Y2567D01*
X5965Y2593D01*
X5951Y2617D01*
X5932Y2637D01*
X5908Y2651D01*
X5881Y2658D01*
D02*
G37*
G36*
X5627D02*
X5600D01*
X5573Y2651D01*
X5549Y2637D01*
X5529Y2617D01*
X5516Y2593D01*
X5508Y2567D01*
Y2539D01*
X5516Y2512D01*
X5529Y2488D01*
X5549Y2469D01*
X5573Y2455D01*
X5600Y2448D01*
X5627D01*
X5654Y2455D01*
X5678Y2469D01*
X5697Y2488D01*
X5711Y2512D01*
X5718Y2539D01*
Y2567D01*
X5711Y2593D01*
X5697Y2617D01*
X5678Y2637D01*
X5654Y2651D01*
X5627Y2658D01*
D02*
G37*
G36*
X10961Y2404D02*
X10934D01*
X10907Y2397D01*
X10883Y2383D01*
X10863Y2363D01*
X10850Y2339D01*
X10842Y2313D01*
Y2285D01*
X10850Y2258D01*
X10863Y2234D01*
X10883Y2215D01*
X10907Y2201D01*
X10934Y2194D01*
X10961D01*
X10988Y2201D01*
X11012Y2215D01*
X11031Y2234D01*
X11045Y2258D01*
X11052Y2285D01*
Y2313D01*
X11045Y2339D01*
X11031Y2363D01*
X11012Y2383D01*
X10988Y2397D01*
X10961Y2404D01*
D02*
G37*
G36*
X10707D02*
X10680D01*
X10653Y2397D01*
X10629Y2383D01*
X10609Y2363D01*
X10596Y2339D01*
X10588Y2313D01*
Y2285D01*
X10596Y2258D01*
X10609Y2234D01*
X10629Y2215D01*
X10653Y2201D01*
X10680Y2194D01*
X10707D01*
X10734Y2201D01*
X10758Y2215D01*
X10777Y2234D01*
X10791Y2258D01*
X10798Y2285D01*
Y2313D01*
X10791Y2339D01*
X10777Y2363D01*
X10758Y2383D01*
X10734Y2397D01*
X10707Y2404D01*
D02*
G37*
G36*
X10453D02*
X10426D01*
X10399Y2397D01*
X10375Y2383D01*
X10355Y2363D01*
X10342Y2339D01*
X10334Y2313D01*
Y2285D01*
X10342Y2258D01*
X10355Y2234D01*
X10375Y2215D01*
X10399Y2201D01*
X10426Y2194D01*
X10453D01*
X10480Y2201D01*
X10504Y2215D01*
X10523Y2234D01*
X10537Y2258D01*
X10544Y2285D01*
Y2313D01*
X10537Y2339D01*
X10523Y2363D01*
X10504Y2383D01*
X10480Y2397D01*
X10453Y2404D01*
D02*
G37*
G36*
X10199D02*
X10172D01*
X10145Y2397D01*
X10121Y2383D01*
X10101Y2363D01*
X10088Y2339D01*
X10080Y2313D01*
Y2285D01*
X10088Y2258D01*
X10101Y2234D01*
X10121Y2215D01*
X10145Y2201D01*
X10172Y2194D01*
X10199D01*
X10226Y2201D01*
X10250Y2215D01*
X10269Y2234D01*
X10283Y2258D01*
X10290Y2285D01*
Y2313D01*
X10283Y2339D01*
X10269Y2363D01*
X10250Y2383D01*
X10226Y2397D01*
X10199Y2404D01*
D02*
G37*
G36*
X9183D02*
X9156D01*
X9129Y2397D01*
X9105Y2383D01*
X9085Y2363D01*
X9072Y2339D01*
X9064Y2313D01*
Y2285D01*
X9072Y2258D01*
X9085Y2234D01*
X9105Y2215D01*
X9129Y2201D01*
X9156Y2194D01*
X9183D01*
X9210Y2201D01*
X9234Y2215D01*
X9253Y2234D01*
X9267Y2258D01*
X9274Y2285D01*
Y2313D01*
X9267Y2339D01*
X9253Y2363D01*
X9234Y2383D01*
X9210Y2397D01*
X9183Y2404D01*
D02*
G37*
G36*
X8929D02*
X8902D01*
X8875Y2397D01*
X8851Y2383D01*
X8831Y2363D01*
X8818Y2339D01*
X8810Y2313D01*
Y2285D01*
X8818Y2258D01*
X8831Y2234D01*
X8851Y2215D01*
X8875Y2201D01*
X8902Y2194D01*
X8929D01*
X8956Y2201D01*
X8980Y2215D01*
X8999Y2234D01*
X9013Y2258D01*
X9020Y2285D01*
Y2313D01*
X9013Y2339D01*
X8999Y2363D01*
X8980Y2383D01*
X8956Y2397D01*
X8929Y2404D01*
D02*
G37*
G36*
X8675D02*
X8648D01*
X8621Y2397D01*
X8597Y2383D01*
X8577Y2363D01*
X8564Y2339D01*
X8556Y2313D01*
Y2285D01*
X8564Y2258D01*
X8577Y2234D01*
X8597Y2215D01*
X8621Y2201D01*
X8648Y2194D01*
X8675D01*
X8702Y2201D01*
X8726Y2215D01*
X8745Y2234D01*
X8759Y2258D01*
X8766Y2285D01*
Y2313D01*
X8759Y2339D01*
X8745Y2363D01*
X8726Y2383D01*
X8702Y2397D01*
X8675Y2404D01*
D02*
G37*
G36*
X8421D02*
X8394D01*
X8367Y2397D01*
X8343Y2383D01*
X8323Y2363D01*
X8310Y2339D01*
X8302Y2313D01*
Y2285D01*
X8310Y2258D01*
X8323Y2234D01*
X8343Y2215D01*
X8367Y2201D01*
X8394Y2194D01*
X8421D01*
X8448Y2201D01*
X8472Y2215D01*
X8491Y2234D01*
X8505Y2258D01*
X8512Y2285D01*
Y2313D01*
X8505Y2339D01*
X8491Y2363D01*
X8472Y2383D01*
X8448Y2397D01*
X8421Y2404D01*
D02*
G37*
G36*
X8167D02*
X8140D01*
X8113Y2397D01*
X8089Y2383D01*
X8069Y2363D01*
X8056Y2339D01*
X8048Y2313D01*
Y2285D01*
X8056Y2258D01*
X8069Y2234D01*
X8089Y2215D01*
X8113Y2201D01*
X8140Y2194D01*
X8167D01*
X8194Y2201D01*
X8218Y2215D01*
X8237Y2234D01*
X8251Y2258D01*
X8258Y2285D01*
Y2313D01*
X8251Y2339D01*
X8237Y2363D01*
X8218Y2383D01*
X8194Y2397D01*
X8167Y2404D01*
D02*
G37*
G36*
X7659D02*
X7632D01*
X7605Y2397D01*
X7581Y2383D01*
X7561Y2363D01*
X7548Y2339D01*
X7540Y2313D01*
Y2285D01*
X7548Y2258D01*
X7561Y2234D01*
X7581Y2215D01*
X7605Y2201D01*
X7632Y2194D01*
X7659D01*
X7686Y2201D01*
X7710Y2215D01*
X7729Y2234D01*
X7743Y2258D01*
X7750Y2285D01*
Y2313D01*
X7743Y2339D01*
X7729Y2363D01*
X7710Y2383D01*
X7686Y2397D01*
X7659Y2404D01*
D02*
G37*
G36*
X7405D02*
X7378D01*
X7351Y2397D01*
X7327Y2383D01*
X7307Y2363D01*
X7294Y2339D01*
X7286Y2313D01*
Y2285D01*
X7294Y2258D01*
X7307Y2234D01*
X7327Y2215D01*
X7351Y2201D01*
X7378Y2194D01*
X7405D01*
X7432Y2201D01*
X7456Y2215D01*
X7475Y2234D01*
X7489Y2258D01*
X7496Y2285D01*
Y2313D01*
X7489Y2339D01*
X7475Y2363D01*
X7456Y2383D01*
X7432Y2397D01*
X7405Y2404D01*
D02*
G37*
G36*
X7151D02*
X7124D01*
X7097Y2397D01*
X7073Y2383D01*
X7053Y2363D01*
X7040Y2339D01*
X7032Y2313D01*
Y2285D01*
X7040Y2258D01*
X7053Y2234D01*
X7073Y2215D01*
X7097Y2201D01*
X7124Y2194D01*
X7151D01*
X7178Y2201D01*
X7202Y2215D01*
X7221Y2234D01*
X7235Y2258D01*
X7242Y2285D01*
Y2313D01*
X7235Y2339D01*
X7221Y2363D01*
X7202Y2383D01*
X7178Y2397D01*
X7151Y2404D01*
D02*
G37*
G36*
X6897D02*
X6870D01*
X6843Y2397D01*
X6819Y2383D01*
X6799Y2363D01*
X6786Y2339D01*
X6778Y2313D01*
Y2285D01*
X6786Y2258D01*
X6799Y2234D01*
X6819Y2215D01*
X6843Y2201D01*
X6870Y2194D01*
X6897D01*
X6924Y2201D01*
X6948Y2215D01*
X6967Y2234D01*
X6981Y2258D01*
X6988Y2285D01*
Y2313D01*
X6981Y2339D01*
X6967Y2363D01*
X6948Y2383D01*
X6924Y2397D01*
X6897Y2404D01*
D02*
G37*
G36*
X6135D02*
X6108D01*
X6081Y2397D01*
X6057Y2383D01*
X6037Y2363D01*
X6024Y2339D01*
X6016Y2313D01*
Y2285D01*
X6024Y2258D01*
X6037Y2234D01*
X6057Y2215D01*
X6081Y2201D01*
X6108Y2194D01*
X6135D01*
X6162Y2201D01*
X6186Y2215D01*
X6205Y2234D01*
X6219Y2258D01*
X6226Y2285D01*
Y2313D01*
X6219Y2339D01*
X6205Y2363D01*
X6186Y2383D01*
X6162Y2397D01*
X6135Y2404D01*
D02*
G37*
G36*
X11787Y1706D02*
X11759D01*
X11732Y1699D01*
X11708Y1685D01*
X11688Y1665D01*
X11674Y1641D01*
X11667Y1614D01*
Y1586D01*
X11674Y1559D01*
X11688Y1535D01*
X11708Y1515D01*
X11732Y1501D01*
X11759Y1494D01*
X11787D01*
X11814Y1501D01*
X11838Y1515D01*
X11858Y1535D01*
X11872Y1559D01*
X11879Y1586D01*
Y1614D01*
X11872Y1641D01*
X11858Y1665D01*
X11838Y1685D01*
X11814Y1699D01*
X11787Y1706D01*
D02*
G37*
G36*
X12122Y546D02*
X12084D01*
X12048Y538D01*
X12013Y524D01*
X11982Y503D01*
X11956Y477D01*
X11935Y446D01*
X11920Y411D01*
X11913Y374D01*
Y337D01*
X11920Y300D01*
X11935Y266D01*
X11956Y234D01*
X11982Y208D01*
X12013Y187D01*
X12048Y173D01*
X12084Y166D01*
X12122D01*
X12159Y173D01*
X12193Y187D01*
X12224Y208D01*
X12251Y234D01*
X12271Y266D01*
X12286Y300D01*
X12293Y337D01*
Y374D01*
X12286Y411D01*
X12271Y446D01*
X12251Y477D01*
X12224Y503D01*
X12193Y524D01*
X12159Y538D01*
X12122Y546D01*
D02*
G37*
G36*
X438D02*
X400D01*
X364Y538D01*
X329Y524D01*
X298Y503D01*
X272Y477D01*
X251Y446D01*
X236Y411D01*
X229Y374D01*
Y337D01*
X236Y300D01*
X251Y266D01*
X272Y234D01*
X298Y208D01*
X329Y187D01*
X364Y173D01*
X400Y166D01*
X438D01*
X475Y173D01*
X509Y187D01*
X540Y208D01*
X567Y234D01*
X587Y266D01*
X602Y300D01*
X609Y337D01*
Y374D01*
X602Y411D01*
X587Y446D01*
X567Y477D01*
X540Y503D01*
X509Y524D01*
X475Y538D01*
X438Y546D01*
D02*
G37*
%LPD*%
G36*
X8585Y8426D02*
X8570Y8411D01*
X8553Y8381D01*
X8544Y8348D01*
Y8314D01*
X8544Y8314D01*
X8532Y8302D01*
X8520Y8286D01*
X8513Y8268D01*
X8510Y8248D01*
Y8145D01*
X8479D01*
Y7933D01*
X8691D01*
Y8078D01*
X8949D01*
Y8047D01*
X9085D01*
X9090Y8036D01*
X8953Y7899D01*
X8344D01*
X8344Y7899D01*
X8320Y7894D01*
X8299Y7880D01*
X8299Y7880D01*
X8177Y7758D01*
X8158Y7763D01*
X8134D01*
X8128Y7775D01*
X8293Y7940D01*
X8317Y7933D01*
X8345D01*
X8372Y7940D01*
X8396Y7954D01*
X8416Y7974D01*
X8430Y7998D01*
X8437Y8025D01*
Y8053D01*
X8430Y8080D01*
X8416Y8104D01*
X8396Y8124D01*
X8372Y8138D01*
X8345Y8145D01*
X8317D01*
X8290Y8138D01*
X8266Y8124D01*
X8246Y8104D01*
X8232Y8080D01*
X8225Y8053D01*
Y8032D01*
X8188Y7995D01*
X8177Y8002D01*
X8183Y8025D01*
Y8053D01*
X8176Y8080D01*
X8162Y8104D01*
X8152Y8114D01*
Y8224D01*
X8367Y8438D01*
X8579D01*
X8585Y8426D01*
D02*
G37*
G36*
X4975Y2564D02*
Y2536D01*
X4984Y2503D01*
X5001Y2473D01*
X5026Y2449D01*
X5030Y2446D01*
Y2429D01*
X4975D01*
Y2196D01*
X4964Y2191D01*
X4854Y2301D01*
X4838Y2313D01*
X4820Y2320D01*
X4801Y2323D01*
X1016D01*
X1014Y2328D01*
X995Y2356D01*
X972Y2380D01*
X944Y2398D01*
X913Y2411D01*
X880Y2418D01*
X847D01*
X814Y2411D01*
X783Y2398D01*
X755Y2380D01*
X732Y2356D01*
X713Y2328D01*
X700Y2297D01*
X694Y2265D01*
Y2231D01*
X700Y2198D01*
X713Y2168D01*
X732Y2140D01*
X755Y2116D01*
X783Y2098D01*
X814Y2085D01*
X847Y2078D01*
X880D01*
X913Y2085D01*
X944Y2098D01*
X972Y2116D01*
X995Y2140D01*
X1014Y2168D01*
X1016Y2173D01*
X4769D01*
X5488Y1455D01*
Y946D01*
X5486Y945D01*
X5456Y942D01*
X5426Y933D01*
X5399Y919D01*
X5375Y899D01*
X5355Y875D01*
X5341Y848D01*
X5332Y818D01*
X5329Y787D01*
Y737D01*
X5332Y706D01*
X5341Y676D01*
X5355Y649D01*
X5345Y641D01*
X5295Y692D01*
Y1511D01*
X5292Y1531D01*
X5285Y1549D01*
X5273Y1564D01*
X4803Y2034D01*
X4787Y2046D01*
X4769Y2054D01*
X4750Y2056D01*
X4051D01*
X4032Y2054D01*
X4014Y2046D01*
X3998Y2034D01*
X3813Y1849D01*
X3808Y1851D01*
X3776Y1858D01*
X3743D01*
X3710Y1851D01*
X3679Y1839D01*
X3652Y1820D01*
X3628Y1797D01*
X3610Y1769D01*
X3597Y1738D01*
X3590Y1706D01*
Y1672D01*
X3597Y1640D01*
X3610Y1609D01*
X3628Y1582D01*
X3652Y1558D01*
X3679Y1540D01*
X3710Y1527D01*
X3743Y1520D01*
X3776D01*
X3808Y1527D01*
X3839Y1540D01*
X3867Y1558D01*
X3890Y1582D01*
X3909Y1609D01*
X3921Y1640D01*
X3928Y1672D01*
Y1706D01*
X3921Y1738D01*
X3919Y1743D01*
X4082Y1906D01*
X4719D01*
X5145Y1480D01*
Y660D01*
X5147Y641D01*
X5155Y623D01*
X5167Y607D01*
X5292Y481D01*
X5291Y474D01*
X5290Y469D01*
X5187D01*
X4782Y874D01*
Y1118D01*
Y1211D01*
X4780Y1230D01*
X4772Y1248D01*
X4760Y1264D01*
X4389Y1635D01*
X4391Y1640D01*
X4398Y1672D01*
Y1706D01*
X4391Y1738D01*
X4379Y1769D01*
X4360Y1797D01*
X4337Y1820D01*
X4309Y1839D01*
X4278Y1851D01*
X4246Y1858D01*
X4213D01*
X4180Y1851D01*
X4149Y1839D01*
X4122Y1820D01*
X4098Y1797D01*
X4080Y1769D01*
X4067Y1738D01*
X4060Y1706D01*
Y1672D01*
X4067Y1640D01*
X4080Y1609D01*
X4098Y1582D01*
X4122Y1558D01*
X4149Y1540D01*
X4180Y1527D01*
X4213Y1520D01*
X4246D01*
X4278Y1527D01*
X4283Y1529D01*
X4608Y1204D01*
X4603Y1193D01*
X2306D01*
X2306Y1193D01*
X2288Y1223D01*
X2264Y1247D01*
X2235Y1264D01*
X2202Y1273D01*
X2167D01*
X2134Y1264D01*
X2105Y1247D01*
X2080Y1223D01*
X2063Y1193D01*
X2054Y1160D01*
Y1126D01*
X2063Y1093D01*
X2080Y1063D01*
X2105Y1039D01*
X2134Y1022D01*
X2167Y1013D01*
X2202D01*
X2235Y1022D01*
X2264Y1039D01*
X2268Y1043D01*
X4632D01*
Y843D01*
X4635Y823D01*
X4642Y805D01*
X4654Y789D01*
X5103Y341D01*
X5119Y329D01*
X5137Y321D01*
X5156Y319D01*
X6529D01*
X6548Y321D01*
X6567Y329D01*
X6582Y341D01*
X6707Y466D01*
X6713Y467D01*
X6730Y478D01*
X6742Y474D01*
Y396D01*
X6745Y377D01*
X6746Y375D01*
X6624Y253D01*
X4848D01*
X4843Y265D01*
X4854Y276D01*
X4871Y305D01*
X4880Y338D01*
Y373D01*
X4871Y406D01*
X4854Y435D01*
X4830Y460D01*
X4800Y477D01*
X4767Y486D01*
X4733D01*
X4704Y478D01*
X4493Y689D01*
X4498Y706D01*
X4501Y737D01*
Y787D01*
X4498Y818D01*
X4489Y848D01*
X4475Y875D01*
X4455Y899D01*
X4431Y919D01*
X4404Y933D01*
X4374Y942D01*
X4343Y945D01*
X4313Y942D01*
X4283Y933D01*
X4256Y919D01*
X4232Y899D01*
X4212Y875D01*
X4198Y848D01*
X4191Y825D01*
X3988D01*
X3981Y848D01*
X3967Y875D01*
X3947Y899D01*
X3923Y919D01*
X3896Y933D01*
X3866Y942D01*
X3835Y945D01*
X3805Y942D01*
X3775Y933D01*
X3748Y919D01*
X3724Y899D01*
X3704Y875D01*
X3690Y848D01*
X3681Y818D01*
X3678Y787D01*
Y737D01*
X3681Y706D01*
X3690Y676D01*
X3704Y649D01*
X3724Y625D01*
X3748Y605D01*
X3775Y591D01*
X3805Y582D01*
X3835Y579D01*
X3866Y582D01*
X3896Y591D01*
X3923Y605D01*
X3947Y625D01*
X3967Y649D01*
X3981Y676D01*
X3988Y699D01*
X4191D01*
X4198Y676D01*
X4212Y649D01*
X4232Y625D01*
X4256Y605D01*
X4283Y591D01*
X4313Y582D01*
X4343Y579D01*
X4374Y582D01*
X4404Y591D01*
X4410Y594D01*
X4622Y382D01*
X4620Y373D01*
Y338D01*
X4629Y305D01*
X4646Y276D01*
X4657Y265D01*
X4652Y253D01*
X1606D01*
X291Y1568D01*
Y1639D01*
X3120D01*
Y1520D01*
X3458D01*
Y1858D01*
X3120D01*
Y1790D01*
X291D01*
Y2681D01*
X711D01*
X713Y2676D01*
X732Y2648D01*
X755Y2624D01*
X783Y2606D01*
X814Y2593D01*
X847Y2586D01*
X880D01*
X913Y2593D01*
X944Y2606D01*
X972Y2624D01*
X995Y2648D01*
X1014Y2676D01*
X1016Y2681D01*
X4858D01*
X4975Y2564D01*
D02*
G37*
G36*
X8083Y2013D02*
X8083Y2013D01*
X8104Y1999D01*
X8128Y1995D01*
X8128Y1995D01*
X8229D01*
X8308Y1915D01*
X8301Y1905D01*
X8283Y1915D01*
X8256Y1922D01*
X8228D01*
X8201Y1915D01*
X8177Y1901D01*
X8157Y1881D01*
X8144Y1857D01*
X8136Y1830D01*
Y1802D01*
X8144Y1775D01*
X8157Y1751D01*
X8177Y1731D01*
X8186Y1726D01*
Y1662D01*
X7920Y1396D01*
X7667D01*
X7662Y1408D01*
X7669Y1416D01*
X7796D01*
X7796Y1416D01*
X7818Y1420D01*
X7836Y1432D01*
X8028Y1624D01*
X8040Y1642D01*
X8045Y1664D01*
X8045Y1664D01*
Y1710D01*
X8094D01*
Y1922D01*
X7882D01*
Y1710D01*
X7932D01*
Y1687D01*
X7773Y1529D01*
X7644D01*
X7623Y1524D01*
X7604Y1512D01*
X7604Y1512D01*
X7550Y1457D01*
X7538Y1462D01*
Y1598D01*
X7538Y1598D01*
X7538D01*
X7541Y1610D01*
X7931Y2000D01*
X7945Y2021D01*
X7950Y2045D01*
Y2130D01*
X7961Y2135D01*
X8083Y2013D01*
D02*
G37*
G36*
X9190Y1816D02*
X8837Y1463D01*
X8825Y1468D01*
Y1741D01*
X8835Y1751D01*
X8849Y1775D01*
X8856Y1802D01*
Y1830D01*
X8849Y1857D01*
X8835Y1881D01*
X8815Y1901D01*
X8806Y1906D01*
X8810Y1919D01*
X9190D01*
Y1816D01*
D02*
G37*
G36*
X7110Y1471D02*
X7125Y1459D01*
X7144Y1451D01*
X7163Y1449D01*
X7168D01*
Y1398D01*
X7317D01*
X7322Y1387D01*
X7285Y1350D01*
X7273Y1331D01*
X7269Y1310D01*
X7269Y1310D01*
Y1217D01*
X7268Y1214D01*
X7255D01*
X7253Y1229D01*
X7240Y1248D01*
X7221Y1260D01*
X7198Y1265D01*
X7176Y1260D01*
X7157Y1248D01*
X7144Y1229D01*
X7141Y1214D01*
X7128D01*
X7126Y1229D01*
X7113Y1248D01*
X7094Y1260D01*
X7071Y1265D01*
X7049Y1260D01*
X7030Y1248D01*
X7017Y1229D01*
X7014Y1214D01*
X7001D01*
X6999Y1229D01*
X6986Y1248D01*
X6980Y1251D01*
X6972Y1260D01*
Y1399D01*
X7005D01*
Y1559D01*
X7017Y1564D01*
X7110Y1471D01*
D02*
G37*
G36*
X5243Y2055D02*
X5258Y2043D01*
X5276Y2036D01*
X5286Y2034D01*
X5296Y2033D01*
X5561D01*
X5581Y2036D01*
X5599Y2043D01*
X5614Y2055D01*
X5666Y2107D01*
X5667Y2108D01*
X5684Y2110D01*
X6030Y1763D01*
X6030Y1763D01*
X6114Y1679D01*
X6109Y1667D01*
X6079D01*
X6046Y1658D01*
X6016Y1641D01*
X5992Y1617D01*
X5975Y1587D01*
X5966Y1554D01*
Y1520D01*
X5975Y1487D01*
X5992Y1457D01*
X6016Y1433D01*
X6046Y1416D01*
X6079Y1407D01*
X6082D01*
X6211Y1277D01*
Y755D01*
X6162Y705D01*
X6150Y711D01*
X6152Y737D01*
Y787D01*
X6149Y818D01*
X6140Y848D01*
X6126Y875D01*
X6106Y899D01*
X6082Y919D01*
X6055Y933D01*
X6025Y942D01*
X5994Y945D01*
X5964Y942D01*
X5934Y933D01*
X5907Y919D01*
X5883Y899D01*
X5863Y875D01*
X5849Y848D01*
X5845Y837D01*
X5635D01*
X5632Y848D01*
X5623Y865D01*
X5628Y871D01*
X5635Y889D01*
X5636Y899D01*
X5638Y908D01*
Y1411D01*
X5684D01*
X5764Y1330D01*
X5763Y1325D01*
Y1291D01*
X5772Y1258D01*
X5789Y1228D01*
X5813Y1204D01*
X5843Y1187D01*
X5876Y1178D01*
X5910D01*
X5943Y1187D01*
X5973Y1204D01*
X5997Y1228D01*
X6014Y1258D01*
X6023Y1291D01*
Y1325D01*
X6014Y1358D01*
X5997Y1388D01*
X5973Y1412D01*
X5943Y1429D01*
X5910Y1438D01*
X5876D01*
X5870Y1437D01*
X5768Y1539D01*
X5753Y1551D01*
X5734Y1558D01*
X5715Y1561D01*
X5594D01*
X4998Y2157D01*
X5003Y2169D01*
X5129D01*
X5243Y2055D01*
D02*
G37*
G36*
X6236Y1589D02*
X6635D01*
Y1399D01*
X6669D01*
Y1266D01*
X6655Y1251D01*
X6649Y1248D01*
X6636Y1229D01*
X6632Y1206D01*
Y1061D01*
X6636Y1039D01*
X6644Y1027D01*
X6637Y1015D01*
X6552D01*
Y1048D01*
X6362D01*
Y1308D01*
X6360Y1318D01*
X6359Y1328D01*
X6352Y1346D01*
X6340Y1361D01*
X6216Y1485D01*
X6217Y1487D01*
X6226Y1520D01*
Y1554D01*
X6220Y1578D01*
X6223Y1584D01*
X6230Y1589D01*
X6236Y1589D01*
D02*
G37*
G36*
X6890Y1039D02*
X6903Y1020D01*
X6922Y1007D01*
X6944Y1002D01*
X6967Y1007D01*
X6986Y1020D01*
X6999Y1039D01*
X7001Y1053D01*
X7014D01*
X7017Y1039D01*
X7030Y1020D01*
X7039Y1014D01*
X7317Y736D01*
X7312Y722D01*
X7303Y720D01*
X7284Y708D01*
X7271Y689D01*
X7268Y674D01*
X7255D01*
X7253Y689D01*
X7240Y708D01*
X7221Y720D01*
X7198Y725D01*
X7176Y720D01*
X7157Y708D01*
X7150Y697D01*
X7137Y700D01*
Y731D01*
X7132Y755D01*
X7118Y775D01*
X7118Y775D01*
X7081Y813D01*
X7061Y826D01*
X7037Y831D01*
X6552D01*
Y858D01*
X6552D01*
Y868D01*
X6552D01*
Y902D01*
X6775D01*
X6775Y902D01*
X6796Y906D01*
X6815Y918D01*
X6857Y961D01*
X6857Y961D01*
X6870Y979D01*
X6874Y1001D01*
X6874Y1001D01*
Y1050D01*
X6874Y1053D01*
X6887D01*
X6890Y1039D01*
D02*
G37*
G36*
X7761Y869D02*
X7761D01*
Y859D01*
X7761D01*
Y826D01*
X7387D01*
X7322Y891D01*
X7326Y903D01*
X7761D01*
Y869D01*
D02*
G37*
G36*
X5849Y676D02*
X5863Y649D01*
X5883Y625D01*
X5888Y620D01*
X5884Y608D01*
X5597D01*
X5592Y620D01*
X5598Y625D01*
X5618Y649D01*
X5632Y676D01*
X5635Y687D01*
X5845D01*
X5849Y676D01*
D02*
G37*
G36*
X6640Y694D02*
X6636Y689D01*
X6632Y666D01*
Y600D01*
X6620Y591D01*
X6498Y469D01*
X6434D01*
X6429Y481D01*
X6501Y553D01*
X6513Y568D01*
X6520Y587D01*
X6523Y606D01*
Y678D01*
X6552D01*
Y705D01*
X6634D01*
X6640Y694D01*
D02*
G37*
G36*
X12036Y6868D02*
X12066Y6851D01*
X12072Y6849D01*
Y1230D01*
X11153Y310D01*
X7415D01*
X7256Y469D01*
Y509D01*
X7269Y510D01*
X7271Y499D01*
X7284Y480D01*
X7293Y474D01*
X7413Y354D01*
X7413Y354D01*
X7431Y342D01*
X7453Y337D01*
X7453Y337D01*
X11062D01*
X11062Y337D01*
X11083Y342D01*
X11102Y354D01*
X11991Y1243D01*
X11991Y1243D01*
X12003Y1261D01*
X12007Y1283D01*
Y6879D01*
X12020Y6884D01*
X12036Y6868D01*
D02*
G37*
D11*
X6452Y768D02*
D03*
Y958D02*
D03*
X7861Y959D02*
D03*
Y769D02*
D03*
D12*
X6915Y1499D02*
D03*
X6725D02*
D03*
X7258Y1498D02*
D03*
X7448D02*
D03*
D17*
X5563Y1486D02*
X5715D01*
X5893Y1308D01*
X4750Y1981D02*
X5220Y1511D01*
X3759Y1689D02*
X4051Y1981D01*
X4750D01*
X4263Y1655D02*
X4707Y1211D01*
Y1156D02*
Y1211D01*
X216Y1537D02*
Y1715D01*
X3203D01*
X216D02*
Y2743D01*
X4707Y1118D02*
Y1156D01*
X8585Y8153D02*
Y8248D01*
Y8153D02*
X9055D01*
X8585Y8039D02*
Y8153D01*
X9792Y8382D02*
X10389D01*
X9543Y8134D02*
X9792Y8382D01*
X10389Y8039D02*
Y8382D01*
Y8457D01*
X8585Y8248D02*
X8668Y8331D01*
X8674D01*
X9233Y3416D02*
Y3858D01*
X9182Y3909D02*
X9233Y3858D01*
X9182Y3909D02*
Y4381D01*
X7482Y4978D02*
X9055D01*
X6161Y6005D02*
X6455D01*
X5677Y6490D02*
X6161Y6005D01*
X6455D02*
X7482Y4978D01*
X229Y4013D02*
Y5271D01*
Y6769D01*
X5220Y6731D02*
X6058D01*
X5093Y6858D02*
X5220Y6731D01*
X5601Y7379D02*
Y7633D01*
X11189Y7379D02*
Y7633D01*
X5347Y7379D02*
Y7633D01*
X5093Y7379D02*
Y7633D01*
X11443Y6439D02*
Y7125D01*
X11189Y7379D02*
X11443Y7125D01*
X5105Y2299D02*
X5296Y2108D01*
X5105Y2299D02*
Y2553D01*
X5561Y2108D02*
X5613Y2160D01*
X5359Y2299D02*
Y2553D01*
X5296Y2108D02*
X5561D01*
X5613Y2160D02*
Y2299D01*
X11201D02*
Y2553D01*
X9169D02*
X9181Y2564D01*
X9360Y1131D02*
X9385Y1105D01*
Y864D02*
Y1105D01*
X9360Y1131D02*
Y1384D01*
X9550Y1575D01*
Y1816D01*
X9377Y2836D02*
X9415D01*
X9436Y2858D01*
X6236Y1664D02*
X7023D01*
X7163Y1524D01*
X6083Y1816D02*
X6236Y1664D01*
X7163Y1524D02*
X7242D01*
X229Y6769D02*
X876Y7417D01*
X566Y5271D02*
X1270D01*
X229Y4013D02*
X321Y3921D01*
X216Y4026D02*
X229Y4013D01*
X6845Y368D02*
Y368D01*
X6817Y396D02*
X6845Y368D01*
X7258Y1498D02*
Y1508D01*
X7242Y1524D02*
X7258Y1508D01*
X864Y5880D02*
X1613D01*
X5347Y7633D02*
Y7924D01*
X4707Y843D02*
Y1118D01*
X8501Y1816D02*
X8678Y1994D01*
X9447Y1916D02*
X9547Y1816D01*
X9376Y1994D02*
X9447Y1923D01*
Y1916D02*
Y1923D01*
X8678Y1994D02*
X9376D01*
X6944Y467D02*
Y594D01*
X6845Y368D02*
X6944Y467D01*
X5220Y660D02*
X5347Y533D01*
X6096D02*
X6287Y724D01*
X5347Y533D02*
X6096D01*
X5220Y660D02*
Y1511D01*
X4707Y843D02*
X5156Y394D01*
X6236D01*
X8077Y8255D02*
X8336Y8513D01*
X10332D02*
X10389Y8457D01*
X8336Y8513D02*
X10332D01*
X5347Y7912D02*
X5690Y8255D01*
X5729Y3111D02*
X8928D01*
X216Y1537D02*
X1575Y178D01*
X2184Y1143D02*
X2197Y1131D01*
X2241D01*
X2255Y1118D01*
X873Y3404D02*
X4331D01*
X864Y2756D02*
X4890D01*
X4331Y3404D02*
Y5880D01*
X4890Y2756D02*
X5093Y2553D01*
X4331Y3404D02*
X5677D01*
X8077Y8039D02*
Y8255D01*
X566Y5271D02*
Y6090D01*
X629Y6153D01*
X714D01*
X812Y6252D01*
X864D01*
X268Y5271D02*
X566D01*
X876Y6909D02*
X2159D01*
X1086Y5086D02*
X1270Y5271D01*
X864Y5086D02*
X1086D01*
X864Y4578D02*
X1270Y4172D01*
Y5271D02*
X1892D01*
X5690Y8255D02*
X8077D01*
X216Y2743D02*
X229Y2756D01*
X216Y2743D02*
Y4026D01*
X1270Y3820D02*
Y4172D01*
X229Y2756D02*
X864D01*
X321Y3921D02*
X864D01*
Y3413D02*
X873Y3404D01*
X864Y3413D02*
X956Y3505D01*
X1270Y3820D01*
X8710Y6198D02*
X11201D01*
X11443Y6439D01*
X11671Y6210D01*
X5486Y762D02*
Y832D01*
X5563Y908D01*
X5486Y762D02*
X5994D01*
X6236Y394D02*
X6529D01*
X2255Y1118D02*
X4669D01*
X1575Y178D02*
X6655D01*
X4669Y1118D02*
X4707Y1156D01*
X6287Y724D02*
Y1308D01*
X6236Y394D02*
X6448Y606D01*
X5601Y2299D02*
X6083Y1816D01*
X6629D01*
X4801Y2248D02*
X5563Y1486D01*
X6448Y606D02*
Y753D01*
X6452Y757D01*
Y768D01*
X6529Y394D02*
X6673Y538D01*
X6817Y594D02*
X6817Y594D01*
X6655Y178D02*
X6845Y368D01*
X6817Y396D02*
Y594D01*
X1613Y5880D02*
X2400Y6668D01*
X2159Y6909D02*
X2400Y6668D01*
X1892Y5271D02*
X3454Y6833D01*
X2400Y6668D02*
X3670Y7938D01*
X3454Y6833D02*
X5067D01*
X4331Y5880D02*
X4648Y6198D01*
X3670Y7938D02*
X5333D01*
X5067Y6833D02*
X5093Y6858D01*
Y7379D01*
X5333Y7938D02*
X5347Y7924D01*
X5677Y3164D02*
Y3404D01*
Y3164D02*
X5729Y3111D01*
X5563Y908D02*
Y1486D01*
X6134Y1460D02*
Y1524D01*
Y1460D02*
X6287Y1308D01*
X216Y1537D02*
Y1537D01*
X880Y2248D02*
X4801D01*
X8496Y1816D02*
X8501D01*
X8751Y1155D02*
X8763Y1143D01*
X8751Y1271D02*
X9296Y1816D01*
X8750Y1322D02*
Y1816D01*
Y1322D02*
X8751Y1322D01*
Y1155D02*
Y1271D01*
Y1322D01*
X8332Y3979D02*
X8995Y4642D01*
X8928Y3111D02*
X9233Y3416D01*
X9547Y1816D02*
X9550D01*
X8995Y4642D02*
X9719D01*
X9833Y4528D01*
X11157D01*
X11671Y5042D01*
Y6210D01*
X8278Y3874D02*
Y3906D01*
X8332Y3960D01*
Y3979D01*
X8354Y5842D02*
X8710Y6198D01*
D18*
X7887Y7112D02*
Y7379D01*
Y7112D02*
X7899D01*
X9817Y8153D02*
X9844D01*
X9883Y8192D02*
X10122D01*
X9844Y8153D02*
X9883Y8192D01*
X10947Y6969D02*
Y7366D01*
Y6969D02*
X10960Y6957D01*
X12129Y1206D02*
Y6960D01*
X12116Y6972D02*
X12129Y6960D01*
Y6985D02*
Y7836D01*
X12116Y6972D02*
X12129Y6985D01*
X9741Y6794D02*
X10630D01*
X9157Y7379D02*
X9741Y6794D01*
X8141Y7379D02*
X8903Y6617D01*
X10227D01*
X10935Y7379D02*
X10947Y7366D01*
X9411Y7633D02*
X9436D01*
X9665Y7861D01*
X9690D01*
X10897Y8039D02*
X10916Y8020D01*
Y7652D02*
Y8020D01*
Y7652D02*
X10935Y7633D01*
X10897Y8039D02*
X11176Y8318D01*
X11405D01*
X11951Y1283D02*
Y7772D01*
X11062Y394D02*
X11951Y1283D01*
X11405Y8318D02*
X11951Y7772D01*
X7453Y394D02*
X11062D01*
X11049Y8446D02*
X11519D01*
X10643Y8039D02*
X11049Y8446D01*
X11519D02*
X12129Y7836D01*
X7391Y254D02*
X11176D01*
X12129Y1206D01*
X7200Y446D02*
X7391Y254D01*
X7198Y594D02*
X7199Y593D01*
Y517D02*
X7200Y517D01*
X7199Y517D02*
Y593D01*
X7200Y446D02*
Y517D01*
X7325Y521D02*
X7453Y394D01*
X7811Y8026D02*
X7823Y8039D01*
X7264Y8014D02*
X7277Y8026D01*
X7811D01*
X7118Y1835D02*
X7137Y1816D01*
X7118Y1835D02*
Y1899D01*
X6960Y2057D02*
X7118Y1899D01*
X6363Y2692D02*
X6502Y2832D01*
X6703D02*
X6706Y2835D01*
X6502Y2832D02*
X6703D01*
X6363Y2553D02*
Y2692D01*
X9804Y1575D02*
Y1816D01*
X9792Y1575D02*
X9804D01*
X9788Y1833D02*
X9804Y1816D01*
X10008Y2134D02*
X10058Y2083D01*
X9576Y2134D02*
X10008D01*
X10058Y1816D02*
Y2083D01*
X9411Y2299D02*
X9576Y2134D01*
X6390Y2299D02*
X6427Y2262D01*
X7906Y7633D02*
X8312Y8039D01*
X8331D01*
X6427Y2262D02*
X6438D01*
X6452Y958D02*
X6775D01*
X6817Y1001D01*
X7071Y1061D02*
X7363Y769D01*
X7198Y1061D02*
X7300Y959D01*
X6438Y2262D02*
X6883Y1816D01*
X6817Y1001D02*
Y1134D01*
X6690D02*
Y1207D01*
X6725Y1242D01*
Y1499D01*
X6915Y1236D02*
Y1499D01*
Y1236D02*
X6944Y1207D01*
X6363Y2299D02*
X6390D01*
X7071Y1061D02*
Y1134D01*
X6944D02*
Y1207D01*
X7198Y1061D02*
Y1134D01*
X7325D02*
Y1310D01*
X7300Y959D02*
X7861D01*
X7363Y769D02*
X7861D01*
X7325Y521D02*
Y594D01*
X7452Y1134D02*
Y1280D01*
X7579Y1134D02*
Y1293D01*
X7626Y1340D01*
X7944D01*
X7644Y1472D02*
X7796D01*
X7452Y1280D02*
X7644Y1472D01*
X7988Y1664D02*
Y1816D01*
X8242Y1638D02*
Y1816D01*
X7944Y1340D02*
X8242Y1638D01*
X7796Y1472D02*
X7988Y1664D01*
X7887Y7633D02*
X7906D01*
X7413Y1398D02*
Y1464D01*
X7448Y1498D01*
X7325Y1310D02*
X7413Y1398D01*
D19*
X8344Y7836D02*
X8979D01*
X9296Y8153D02*
X9309D01*
X8979Y7836D02*
X9296Y8153D01*
X4737Y356D02*
X4750D01*
X4343Y749D02*
X4737Y356D01*
X4343Y749D02*
Y762D01*
X9459Y1367D02*
X9468Y1359D01*
X9855D01*
X9377Y1367D02*
X9459D01*
X9373Y1372D02*
X9377Y1367D01*
X9855Y1359D02*
X10541Y2045D01*
X8141Y7633D02*
X8344Y7836D01*
X11151Y8015D02*
Y8039D01*
Y8015D02*
X11189Y7977D01*
Y7633D02*
Y7977D01*
X7258Y1498D02*
X7286Y1527D01*
Y1600D01*
X7323Y1637D01*
X3835Y762D02*
X4343D01*
X6452Y768D02*
X7037D01*
X7074Y731D01*
X7071Y594D02*
X7074Y596D01*
Y731D01*
X8255Y2058D02*
X8496Y1816D01*
X10541Y2045D02*
X11138D01*
X11189Y2095D01*
Y2299D01*
X7479Y1637D02*
X7887Y2045D01*
X7323Y1637D02*
X7479D01*
X8128Y2058D02*
X8255D01*
X7887Y2299D02*
X8128Y2058D01*
X7887Y2045D02*
Y2299D01*
D20*
X9168Y2628D02*
X9377Y2836D01*
X9168Y2564D02*
Y2628D01*
D21*
X9411Y7379D02*
D03*
X9665Y7633D02*
D03*
Y7379D02*
D03*
X9919D02*
D03*
Y7633D02*
D03*
X10681D02*
D03*
Y7379D02*
D03*
X10427Y7633D02*
D03*
Y7379D02*
D03*
X10173Y7633D02*
D03*
Y7379D02*
D03*
X9157Y7633D02*
D03*
X8903D02*
D03*
Y7379D02*
D03*
X8649Y7633D02*
D03*
Y7379D02*
D03*
X8395Y7633D02*
D03*
Y7379D02*
D03*
X7633Y7633D02*
D03*
Y7379D02*
D03*
X7379Y7633D02*
D03*
Y7379D02*
D03*
X7125Y7633D02*
D03*
Y7379D02*
D03*
X6871Y7633D02*
D03*
Y7379D02*
D03*
X6617Y7633D02*
D03*
Y7379D02*
D03*
X6363Y7633D02*
D03*
Y7379D02*
D03*
X6109Y7633D02*
D03*
Y7379D02*
D03*
X5855Y7633D02*
D03*
Y7379D02*
D03*
X6121Y2553D02*
D03*
X5613D02*
D03*
X5867Y2299D02*
D03*
Y2553D02*
D03*
X6121Y2299D02*
D03*
X6629D02*
D03*
Y2553D02*
D03*
X6883Y2299D02*
D03*
Y2553D02*
D03*
X7137Y2299D02*
D03*
Y2553D02*
D03*
X7391Y2299D02*
D03*
Y2553D02*
D03*
X7645Y2299D02*
D03*
Y2553D02*
D03*
X7899D02*
D03*
X8153Y2299D02*
D03*
Y2553D02*
D03*
X8407Y2299D02*
D03*
Y2553D02*
D03*
X8661Y2299D02*
D03*
Y2553D02*
D03*
X8915Y2299D02*
D03*
Y2553D02*
D03*
X9169Y2299D02*
D03*
X9677D02*
D03*
Y2553D02*
D03*
X9931Y2299D02*
D03*
Y2553D02*
D03*
X10185Y2299D02*
D03*
Y2553D02*
D03*
X10439Y2299D02*
D03*
Y2553D02*
D03*
X10693Y2299D02*
D03*
Y2553D02*
D03*
X10947Y2299D02*
D03*
Y2553D02*
D03*
D22*
X5347Y7379D02*
D03*
X11189Y7633D02*
D03*
Y7379D02*
D03*
X10935Y7633D02*
D03*
Y7379D02*
D03*
X9411Y7633D02*
D03*
X9157Y7379D02*
D03*
X8141Y7633D02*
D03*
Y7379D02*
D03*
X7887Y7633D02*
D03*
Y7379D02*
D03*
X5601Y7633D02*
D03*
Y7379D02*
D03*
X5347Y7633D02*
D03*
X5093D02*
D03*
X5105Y2553D02*
D03*
X5359Y2299D02*
D03*
Y2553D02*
D03*
X5613Y2299D02*
D03*
X6375D02*
D03*
Y2553D02*
D03*
X7899Y2299D02*
D03*
X9169Y2553D02*
D03*
X9423Y2299D02*
D03*
Y2553D02*
D03*
X11201Y2299D02*
D03*
Y2553D02*
D03*
X5893Y1308D02*
D03*
X10122Y8192D02*
D03*
X8674Y8331D02*
D03*
X4750Y356D02*
D03*
X9182Y4381D02*
D03*
X5677Y6490D02*
D03*
X6058Y6731D02*
D03*
X10960Y6957D02*
D03*
X12116Y6972D02*
D03*
X10630Y6794D02*
D03*
X10325Y6629D02*
D03*
X9690Y7861D02*
D03*
X7264Y8014D02*
D03*
X7899Y7112D02*
D03*
X9360Y1384D02*
D03*
X6960Y2057D02*
D03*
X6706Y2835D02*
D03*
X9792Y1575D02*
D03*
X9436Y2858D02*
D03*
X2184Y1143D02*
D03*
X6096Y1537D02*
D03*
X5677Y3404D02*
D03*
X2400Y6668D02*
D03*
X4648Y6198D02*
D03*
X8763Y1143D02*
D03*
X9055Y4978D02*
D03*
X9385Y864D02*
D03*
X11671Y5042D02*
D03*
D23*
X5093Y7379D02*
D03*
X5105Y2299D02*
D03*
D24*
X7391Y1816D02*
D03*
X7988D02*
D03*
X8585Y8039D02*
D03*
X9296Y1816D02*
D03*
X9055Y8153D02*
D03*
X10389Y8039D02*
D03*
D25*
X7137Y1816D02*
D03*
X6883D02*
D03*
X6629D02*
D03*
X8750D02*
D03*
X8496D02*
D03*
X8242D02*
D03*
X7823Y8039D02*
D03*
X8077D02*
D03*
X8331D02*
D03*
X11773Y1600D02*
D03*
X10058Y1816D02*
D03*
X9804D02*
D03*
X9550D02*
D03*
X9817Y8153D02*
D03*
X9563D02*
D03*
X9309D02*
D03*
X11151Y8039D02*
D03*
X10897D02*
D03*
X10643D02*
D03*
D26*
X4343Y762D02*
D03*
X5486D02*
D03*
X5994D02*
D03*
X3835D02*
D03*
D27*
X3289Y1689D02*
D03*
D28*
X3759D02*
D03*
X4229D02*
D03*
D29*
X864Y2248D02*
D03*
Y2756D02*
D03*
Y3413D02*
D03*
Y3921D02*
D03*
Y4578D02*
D03*
Y5086D02*
D03*
Y5744D02*
D03*
Y6252D02*
D03*
Y6909D02*
D03*
Y7417D02*
D03*
D30*
X6866Y3874D02*
D03*
X6872Y5842D02*
D03*
X8278Y3874D02*
D03*
X8354Y5842D02*
D03*
D31*
X7374Y3874D02*
D03*
X7380Y5842D02*
D03*
X8786Y3874D02*
D03*
X8862Y5842D02*
D03*
D32*
X12103Y8318D02*
D03*
X419Y356D02*
D03*
Y8318D02*
D03*
X12103Y356D02*
D03*
D33*
X6170Y3937D02*
D03*
X5662D02*
D03*
X6170Y5817D02*
D03*
X5662D02*
D03*
D34*
X11773Y1346D02*
D03*
D35*
X7579Y594D02*
D03*
X7452D02*
D03*
X7325D02*
D03*
X7198D02*
D03*
X7071D02*
D03*
X6944D02*
D03*
X6817D02*
D03*
X6690D02*
D03*
X7579Y1134D02*
D03*
X7452D02*
D03*
X7325D02*
D03*
X7198D02*
D03*
X7071D02*
D03*
X6944D02*
D03*
X6817D02*
D03*
X6690D02*
D03*
M02*
