M48
;Layer_Color=9474304
;FILE_FORMAT=4:2
METRIC,LZ
;TYPE=PLATED
T1F00S00C0.90
T2F00S00C1.00
T3F00S00C1.02
T4F00S00C1.27
T5F00S00C1.85
T6F00S00C3.20
%
T01
X005105Y002299
Y002553
X005359
Y002299
X005613
Y002553
X005867
X006121
Y002299
X005867
X006375
Y002553
X006629
Y002299
X006883
Y002553
X007137
Y002299
X007391
Y002553
X007645
Y002299
X007899
Y002553
X008153
Y002299
X008407
Y002553
X008661
Y002299
X008915
Y002553
X009169
Y002299
X009423
Y002553
X009677
Y002299
X009931
Y002553
X010185
Y002299
X010439
Y002553
X010693
Y002299
X010947
Y002553
X011201
Y002299
X008786Y003874
X008278
X008354Y005842
X008862
X00738
X006872
X006866Y003874
X007374
X007379Y007379
Y007633
X007125
Y007379
X006871
Y007633
X006617
Y007379
X006363
Y007633
X006109
Y007379
X005855
Y007633
X007633
Y007379
X008395
X008649
X008903
Y007633
X009157
X009411Y007379
X009665
Y007633
X009919
Y007379
X010173
X010427
X010681
Y007633
X010427
X010173
X008649
X008395
T02
X002184Y001143
X00475Y000356
X005893Y001308
X006096Y001537
X00696Y002057
X006706Y002835
X009436Y002858
X00936Y001384
X009385Y000864
X008763Y001143
X009792Y001575
X011671Y005042
X012116Y006972
X01096Y006957
X01063Y006794
X010325Y006629
X007899Y007112
X009055Y004978
X009182Y004381
X005677Y003404
Y00649
X006058Y006731
X004648Y006198
X0024Y006668
X005093Y007379
X005347
X005601
Y007633
X005347
X005093
X007264Y008014
X007887Y007633
X008141
Y007379
X007887
X009157
X009411Y007633
X00969Y007861
X010122Y008192
X010935Y007633
X011189
Y007379
X010935
X008674Y008331
T03
X006629Y001816
X006883
X007137
X007391
X007988
X008242
X008496
X00875
X009296
X00955
X009804
X010058
X011773Y0016
Y001346
X011151Y008039
X010897
X010643
X010389
X009817Y008153
X009563
X009309
X009055
X008585Y008039
X008331
X008077
X007823
T04
X000864Y002248
Y002756
X003835Y000762
X004343
X005486
X005994
X00617Y003937
X005662
Y005817
X00617
X000864Y005744
Y006252
Y006909
Y005086
Y004578
Y003921
Y003413
Y007417
T05
X003289Y001689
X003759
X004229
T06
X000419Y000356
X012103
X000419Y008318
X012103
M30
